<svg width="36" height="36" viewBox="0 0 36 36" fill="none" xmlns="http://www.w3.org/2000/svg">
<path d="M17.9913 36C27.8569 36 36 27.853 36 18C36 8.147 27.8395 0 17.9739 0C8.12566 0 0 8.147 0 18C0 27.853 8.14306 36 17.9913 36ZM17.9913 32.4139C10.0048 32.4139 3.61914 25.9903 3.61914 18C3.61914 10.0097 10.0048 3.60348 17.9739 3.60348C25.9604 3.60348 32.3809 10.0097 32.3983 18C32.4157 25.9903 25.9778 32.4139 17.9913 32.4139ZM10.0222 23.6576C10.0222 25.5377 11.0314 26.5126 12.928 26.5126H23.2808C24.986 26.5126 25.9604 25.5377 25.9604 23.6576V14.5184C25.9604 12.6557 24.9686 11.6809 23.0546 11.6809H21.8018C21.767 9.69633 20.0967 8.07737 17.9913 8.07737C15.9033 8.07737 14.233 9.69633 14.1808 11.6809H12.928C11.0314 11.6809 10.0222 12.6383 10.0222 14.5184V23.6576ZM16.0599 11.6809C16.0947 10.5319 16.8255 9.80077 17.9913 9.80077C19.1745 9.80077 19.9053 10.5319 19.9401 11.6809H16.0599Z" fill="#1C1C1E"/>
</svg>
