<?xml version="1.0" encoding="UTF-8"?>
<svg id="Layer_2" data-name="Layer 2" xmlns="http://www.w3.org/2000/svg" xmlns:xlink="http://www.w3.org/1999/xlink" viewBox="0 0 1920 1080">
  <defs>
    <style>
      .cls-1, .cls-2, .cls-3, .cls-4 {
        fill: none;
      }

      .cls-1, .cls-2, .cls-5, .cls-4, .cls-6 {
        stroke-miterlimit: 10;
      }

      .cls-1, .cls-5, .cls-4, .cls-6 {
        stroke: #27f2eb;
      }

      .cls-1, .cls-6 {
        stroke-width: 2.81px;
      }

      .cls-7 {
        font-family: Bahnschrift, Bahnschrift;
        font-size: 34.04px;
        font-variation-settings: 'wght' 400, 'wdth' 100;
      }

      .cls-7, .cls-8 {
        fill: #fff;
      }

      .cls-2 {
        stroke: #fff;
        stroke-width: 5.04px;
      }

      .cls-5, .cls-9, .cls-6 {
        fill: #27f2eb;
      }

      .cls-5, .cls-4 {
        stroke-width: 2.83px;
      }

      .cls-10 {
        clip-path: url(#clippath-1);
      }

      .cls-11 {
        clip-path: url(#clippath);
      }
    </style>
    <clipPath id="clippath">
      <path class="cls-3" d="M-60.03,5.04c-.07,40.05.09,80.23,0,120.27-8.83.55-20.09,5.02-28.27,8.37-16.39,6.72-34.14,15.79-48.28,24.7-.85.53-18,5.07-18.99,5.19-9.59,1.17-17.17-7.71-27.32-5.63-3.06.63,3.16,9.58-11.52,10.05-21.02.67-66.45-3.5-84.65,1.02-1.34.33-12.18,11.75-22.87,13.54-13.94,2.34-21.67-5.38-37.73.38-15.57,5.58-17.27,3.32-30.7,6.1-10.01,2.07-22.87,14.57-41.98,15.6-15.07.81-33.87-4.16-46.26-4.8-9.55-.49-26.69,4.77-36.25,4.5-6.29-.18-62.16-15.93-65.16-18.93l5.49-5.4-25.89-2.93-3.09,5.63-14.4-16.44c-9.79.48-19.9-.82-29.66.18-5.12.53-9.45,5.17-13.97,5.18-5.98,0-25.14-9.32-34.09-8.42l1.02-5.03c-6.75,3.66-17.57,6.17-19.42-2.82-16.89,19.75-48.78,2.22-69.77-2-13.1-2.63-32.65-1.64-45.61-6.8-6.73-2.68-6.41-9.62-9.49-10.36-10.89-2.63-40.3,1.46-49.02-.33-2.67-.55-3.43-6.19-7.81-8.66-1.88-1.06-39.37-12.05-41.54-12.11-9.38-.23-19.66,8.66-28.32,10.05-16.51,2.66-32.77-4.26-49.6-2.57-10.38,1.04-34.96,10.16-43.77,8.34-2.02-.42-1.59-5.61-3.36-5.65-32.12-.72-36.42-10.34-61.35-21.61-29.12-13.16-51.5-6.82-79.22-8.46-4.64-.27-7.96-4.39-13.33-4.61s-37.81,4.07-44.3,5.29c-9.11,1.72-8.16,8.4-14.21,13.14-7.04,5.53-17.91,10.42-25.02,16.31l-2.97-5.69c-10.22,4.74-22.55,3.93-32.23,6.36-13.94,3.5-12.72,15.52-29.67,7.51l-.03,8.23c-13.07-6.91-23.61,5.31-32.4,7.55-14.22,3.61-45.26,6.16-59.25,2.48-20.21-5.32-15.12-3.38-34.04-4.56-24.24-1.51-33.93-13.05-50.38-15.76-30.82-5.07-57.27-.85-86.49,8.78-9.7,3.2-12.06,13.34-14.25,14.57-1.37.77-29.29,6.42-30.84,6.2-1.78-.26-1.34-4.88-3.67-5.51-28.74-7.81-38.75-2.96-65.74-2.84-4.73.02-10.25,3.41-13.44,2.98-2.52-.35-2.78-6.33-5.73-8.51-20.67-15.26-46.21-21.07-71.99-21.21-29.51-.16-46.88,4.44-79.51-1.18-4.47-.77-8.86-5.78-14.24-5.07-2.04.27-.42,8.6-7.06,5.67l-2.82-16.41c-14.62,4.55-21.05,2.14-31.95-8.04-5.3-1.93-2.22,5.65-7.92,5.58-7.76-.09-15.44-6.28-23.65-5.73V5.04H-60.03Z"/>
    </clipPath>
    <clipPath id="clippath-1">
      <path class="cls-3" d="M-1979.99,887.86c7.78-3.22,15.55.22,22.73-.49,11.69-1.17,26.47-5.6,37.21-7.4,3.47-.58,6.43,4.87,10.48,5.07,4.77.23,20.54-7.22,32.55-4.93,6.57,1.25,11.8,9.15,17.75,10.05,5.34.8,11.45-3.04,18.52-2.26,6.74.74,44.96,9.55,52.03,11.83,4.37,1.41,6.12,6.47,11.82,7.61,10.85,2.18,27.71-3.92,41.5-2.86,12.41.95,20.87,8.07,30.3,8.67,22.94,1.45,47.9-3.09,69.04-3.22,29.3-.17,124.18,27.44,151,42.3,2.7,1.49,3.68,5.93,7.8,5.3,2.14,3.01-11.7,3.31-2.78,6.96,9.08,3.72,25.83,1.59,27.13,2.1,5.58,2.18,11.14,14.6,13.62,16,12.89,7.29,35.63-.62,47.85,1.15,10.18,1.47,35.7,9.6,47.75,12.73,2.67.69,1.64,5.28,1.93,5.49,1.21.91,4.52-4.04,7.51-4.78,30.03-7.45,37.46,3.35,64.05,9.2,13.86,3.05,34.32,1.94,47.87,7.44,6.72,2.73,6.42,9.81,9.48,10.56,11.88,2.9,33.58-2.55,46.5-.12,6.34,1.19,5.12,6.75,10.65,8.94,2.24.89,44.38,10.02,46.79,9.99,9.14-.1,24.06-12.72,25.95-13.19,17.06-4.27,41.59-1.93,59.54-6.33,16.56-4.06,18.59-10.44,39.29-11.08,9.66-.3,23.51,1.82,35.24,4.09,22.31,4.32,40.29,18.41,67.16,18.86,10.47.18,26.27-5.57,36.19-5.58,6.09,0,8.31,4.48,12.79,4.75,3.31.2,47.6-9,49.78-10.31,1.41-.85,14.95-22.59,20.71-25.11,7.31-3.19,32.3-3.86,45.3-9.24,13.65-5.64,10.95-17.99,27.08-10.28l.16-8.07c15.56,4.64,22.96-8.35,31.34-11.83,33.78-14,45.23-5.63,74.84-7.74,14.15-1.01,24.84-8.72,44.38-5.92,8.12,1.16,11.04,5.86,21.95,5.98,27.29.3,60.07-8.1,82.62-22.79,5.82-3.79,5.22-10.72,7.87-12.97.85-.72,19.51-8.37,20.61-8.52,11.16-1.55,32.96,7.31,40.35,7.14,7.62-.17,17.14-9.15,23.18-9.94,1.31-.17,22.48-.24,23.66,0,5.58,1.12,23.64,13.96,28.84,15.6,13.61,4.28,61.14,4.67,73.58-2.1,2.52-1.37.74-5.67,3.18-5.69,6.18,14.67,14.5,3.51,24.79,2.72,15.67-1.2,31.22.91,46.64,3.01l5.91-5.74c2.9,8.42,12.32,2.68,9.69,13.97,1.75,2.09,13.89-5.87,17.71-5.67,1.45.08,1.31,4.39,3.75,5.41,16.56,6.93,14.17-2.15,16.27-2.62,6.33-1.44,20.06,3.95,28.57.09v155.94s-1919.97-.01-1919.97-.01c-.05-63.99.07-128.13,0-192.12Z"/>
    </clipPath>
  </defs>
  <g class="cls-11">
    <g>
      <line class="cls-1" x1="1.37" y1="44.8" x2="1.37" y2="80.68"/>
      <polyline class="cls-1" points="14.44 80.68 14.44 44.8 24.74 62.74 35.03 44.8 35.03 80.68"/>
      <polyline class="cls-1" points="49.49 42.87 66.38 64.33 49.49 82.52"/>
      <polyline class="cls-1" points="62.16 43.74 45.27 65.2 62.16 83.4"/>
      <polyline class="cls-1" points="62.36 33.22 62.36 -3.77 76.35 6.89 63.41 18.72"/>
      <ellipse class="cls-6" cx="73.25" cy="54.38" rx="2.41" ry="2.7"/>
      <ellipse class="cls-6" cx="73.25" cy="72.5" rx="2.41" ry="2.7"/>
      <polyline class="cls-1" points="6.63 32.11 24.06 6.77 13.96 -4.99 6.63 6.99 24.06 32.11"/>
      <polyline class="cls-1" points="43.27 5.78 28.95 18.53 43.27 32.11"/>
      <polyline class="cls-1" points="44.45 -4.99 57.92 8.37 44.45 20.09"/>
    </g>
    <g>
      <line class="cls-1" x1="1.37" y1="339.72" x2="1.37" y2="375.6"/>
      <polyline class="cls-1" points="14.44 375.6 14.44 339.72 24.74 357.66 35.03 339.72 35.03 375.6"/>
      <polyline class="cls-1" points="49.49 337.8 66.38 359.25 49.49 377.45"/>
      <polyline class="cls-1" points="62.16 338.67 45.27 360.12 62.16 378.32"/>
      <polyline class="cls-1" points="7.46 277.62 7.46 240.63 21.46 251.28 8.52 263.12"/>
      <line class="cls-1" x1="28.91" y1="276.51" x2="28.91" y2="240.63"/>
      <line class="cls-1" x1="46.33" y1="240.63" x2="46.33" y2="276.51"/>
      <line class="cls-1" x1="28.91" y1="252.76" x2="46.33" y2="262.08"/>
      <ellipse class="cls-6" cx="69.35" cy="199.6" rx="2.41" ry="2.7"/>
      <ellipse class="cls-6" cx="69.35" cy="217.72" rx="2.41" ry="2.7"/>
      <polyline class="cls-1" points="62.36 328.15 62.36 291.16 76.35 301.81 63.41 313.65"/>
      <ellipse class="cls-6" cx="73.25" cy="349.3" rx="2.41" ry="2.7"/>
      <ellipse class="cls-6" cx="73.25" cy="367.43" rx="2.41" ry="2.7"/>
      <line class="cls-1" x1="8.18" y1="139.09" x2="8.18" y2="175.93"/>
      <line class="cls-1" x1="23.42" y1="145.97" x2="8.18" y2="162.61"/>
      <line class="cls-1" x1="18.47" y1="140.05" x2="8.18" y2="152.18"/>
      <polyline class="cls-1" points="31.94 175.93 31.94 139.09 46.79 152.18 49.16 175.93"/>
      <polyline class="cls-1" points="59.86 139.09 59.86 173.71 73.32 157.99 60.65 148.63"/>
      <polyline class="cls-1" points="59.86 240.11 59.86 274.73 73.32 259.01 60.65 249.65"/>
      <polyline class="cls-1" points="6.63 327.04 24.06 301.7 13.96 289.94 6.63 301.92 24.06 327.04"/>
      <polyline class="cls-1" points="43.27 300.7 28.95 313.46 43.27 327.04"/>
      <polyline class="cls-1" points="16.33 86.31 33.23 107.76 16.33 125.96"/>
      <polyline class="cls-1" points="29 87.18 12.11 108.63 29 126.83"/>
      <polyline class="cls-1" points="-17.6 126.33 -17.6 90.45 -7.31 108.39 2.99 90.45 2.99 126.33"/>
      <polyline class="cls-1" points="41.74 126.33 59.16 100.98 49.07 89.22 41.74 101.21 59.16 126.33"/>
      <polyline class="cls-1" points="78.37 99.99 64.05 112.75 78.37 126.33"/>
      <polyline class="cls-1" points="44.45 289.94 57.92 303.29 44.45 315.01"/>
      <polyline class="cls-1" points="53.82 191.61 41.94 208.92 60.95 208.92 51.44 227.41"/>
      <line class="cls-1" x1="27.65" y1="190.42" x2="27.65" y2="227.41"/>
      <polyline class="cls-1" points="38.51 192.79 27.65 205.81 16.86 192.79"/>
      <ellipse class="cls-6" cx="-3.08" cy="217.72" rx="2.41" ry="2.7"/>
      <polyline class="cls-1" points="9.03 191.61 -1.46 199.6 -11.36 190.42 -12.49 229.08 -1.73 217.72 9.03 227.41"/>
    </g>
  </g>
  <g class="cls-10">
    <line class="cls-4" x1="15.34" y1="372.18" x2="15.34" y2="408.72"/>
    <line class="cls-4" x1="-2.07" y1="384.54" x2="15.34" y2="394.03"/>
    <line class="cls-4" x1="42.28" y1="372.18" x2="42.28" y2="408.72"/>
    <line class="cls-4" x1="23.08" y1="375.94" x2="42.28" y2="387.85"/>
    <line class="cls-4" x1="61.29" y1="372.18" x2="61.29" y2="408.72"/>
    <polyline class="cls-4" points="74.36 408.72 74.36 372.18 84.66 390.45 94.95 372.18 94.95 408.72"/>
    <polyline class="cls-4" points="109.41 370.22 126.3 392.07 109.41 410.61"/>
    <polyline class="cls-4" points="122.08 371.1 105.19 392.96 122.08 411.5"/>
    <polyline class="cls-4" points="41.14 318.49 58.04 340.35 41.14 358.89"/>
    <polyline class="cls-4" points="53.82 319.38 36.92 341.23 53.82 359.77"/>
    <polyline class="cls-4" points="122.28 360.39 122.28 322.71 136.27 333.56 123.33 345.62"/>
    <polyline class="cls-4" points="7.21 359.26 7.21 322.71 17.51 340.98 27.8 322.71 27.8 359.26"/>
    <ellipse class="cls-5" cx="133.17" cy="381.94" rx="2.41" ry="2.75"/>
    <ellipse class="cls-5" cx="133.17" cy="400.4" rx="2.41" ry="2.75"/>
    <polyline class="cls-4" points="66.55 359.26 83.98 333.44 73.88 321.46 66.55 333.67 83.98 359.26"/>
    <polyline class="cls-4" points="103.19 332.43 88.87 345.42 103.19 359.26"/>
    <g>
      <line class="cls-4" x1="15.34" y1="672.6" x2="15.34" y2="709.15"/>
      <line class="cls-4" x1="-2.07" y1="684.96" x2="15.34" y2="694.46"/>
      <line class="cls-4" x1="42.28" y1="672.6" x2="42.28" y2="709.15"/>
      <line class="cls-4" x1="23.08" y1="676.37" x2="42.28" y2="688.28"/>
      <line class="cls-4" x1="61.29" y1="672.6" x2="61.29" y2="709.15"/>
      <polyline class="cls-4" points="74.36 709.15 74.36 672.6 84.66 690.88 94.95 672.6 94.95 709.15"/>
      <line class="cls-4" x1=".99" y1="469.88" x2=".99" y2="506.43"/>
      <line class="cls-4" x1="-18.22" y1="473.65" x2=".99" y2="485.56"/>
      <line class="cls-4" x1="20" y1="469.88" x2="20" y2="506.43"/>
      <polyline class="cls-4" points="33.07 506.43 33.07 469.88 43.36 488.16 53.66 469.88 53.66 506.43"/>
      <polyline class="cls-4" points="109.41 670.64 126.3 692.5 109.41 711.04"/>
      <polyline class="cls-4" points="122.08 671.53 105.19 693.39 122.08 711.92"/>
      <polyline class="cls-4" points="41.14 618.92 58.04 640.77 41.14 659.31"/>
      <polyline class="cls-4" points="53.82 619.81 36.92 641.66 53.82 660.2"/>
      <polygon class="cls-4" points="30.69 571.66 30.69 609.34 43.89 599.39 31.74 590.5 42.57 581.01 30.69 571.66"/>
      <polyline class="cls-4" points="67.38 609.34 67.38 571.66 81.38 582.51 68.44 594.57"/>
      <polyline class="cls-4" points="6.92 609.34 6.92 571.66 17.75 584.02"/>
      <line class="cls-4" x1="-4.43" y1="584.02" x2="6.92" y2="571.66"/>
      <line class="cls-4" x1="88.83" y1="608.21" x2="88.83" y2="571.66"/>
      <line class="cls-4" x1="106.25" y1="571.66" x2="106.25" y2="608.21"/>
      <line class="cls-4" x1="88.83" y1="584.02" x2="106.25" y2="593.52"/>
      <ellipse class="cls-5" cx="54.55" cy="581.42" rx="2.41" ry="2.75"/>
      <ellipse class="cls-5" cx="54.55" cy="599.88" rx="2.41" ry="2.75"/>
      <ellipse class="cls-5" cx="129.27" cy="529.87" rx="2.41" ry="2.75"/>
      <ellipse class="cls-5" cx="129.27" cy="548.33" rx="2.41" ry="2.75"/>
      <polyline class="cls-4" points="122.28 660.82 122.28 623.14 136.27 633.99 123.33 646.05"/>
      <polyline class="cls-4" points="7.21 659.69 7.21 623.14 17.51 641.41 27.8 623.14 27.8 659.69"/>
      <ellipse class="cls-5" cx="133.17" cy="682.36" rx="2.41" ry="2.75"/>
      <ellipse class="cls-5" cx="133.17" cy="700.83" rx="2.41" ry="2.75"/>
      <line class="cls-4" x1="68.09" y1="468.23" x2="68.09" y2="505.75"/>
      <line class="cls-4" x1="83.34" y1="475.23" x2="68.09" y2="492.19"/>
      <line class="cls-4" x1="78.39" y1="469.21" x2="68.09" y2="481.56"/>
      <polyline class="cls-4" points="91.86 505.75 91.86 468.23 106.71 481.56 109.08 505.75"/>
      <polyline class="cls-4" points="119.77 468.23 119.77 503.49 133.24 487.48 120.57 477.95"/>
      <polyline class="cls-4" points="119.77 571.14 119.77 606.4 133.24 590.39 120.57 580.86"/>
      <polyline class="cls-4" points="6.97 524.27 6.97 558.41 -5.97 544.84"/>
      <polyline class="cls-4" points="66.55 659.69 83.98 633.87 73.88 621.89 66.55 634.1 83.98 659.69"/>
      <polyline class="cls-4" points="103.19 632.86 88.87 645.85 103.19 659.69"/>
      <polyline class="cls-4" points="76.25 414.46 93.14 436.32 76.25 454.85"/>
      <polyline class="cls-4" points="88.92 415.35 72.03 437.2 88.92 455.74"/>
      <line class="cls-4" x1="10.24" y1="418.68" x2="10.24" y2="455.23"/>
      <line class="cls-4" x1="-8.97" y1="422.45" x2="10.24" y2="434.35"/>
      <line class="cls-4" x1="29.25" y1="418.68" x2="29.25" y2="455.23"/>
      <polyline class="cls-4" points="42.31 455.23 42.31 418.68 52.61 436.95 62.91 418.68 62.91 455.23"/>
      <polyline class="cls-4" points="101.66 455.23 119.08 429.41 108.99 417.43 101.66 429.64 119.08 455.23"/>
      <polyline class="cls-4" points="138.29 428.4 123.97 441.39 138.29 455.23"/>
      <polyline class="cls-4" points="104.37 621.89 117.84 635.5 104.37 647.43"/>
      <polyline class="cls-4" points="113.74 521.73 101.86 539.36 120.87 539.36 111.36 558.2"/>
      <line class="cls-4" x1="87.57" y1="520.52" x2="87.57" y2="558.2"/>
      <polyline class="cls-4" points="98.43 522.93 87.57 536.2 76.78 522.93"/>
      <ellipse class="cls-5" cx="30.8" cy="529.87" rx="2.41" ry="2.75"/>
      <ellipse class="cls-5" cx="56.84" cy="548.33" rx="2.41" ry="2.75"/>
      <polyline class="cls-4" points="68.95 521.73 58.46 529.87 48.56 520.52 47.43 559.9 58.19 548.33 68.95 558.2"/>
    </g>
    <g>
      <line class="cls-4" x1="15.34" y1="976.13" x2="15.34" y2="1012.68"/>
      <line class="cls-4" x1="-2.07" y1="988.49" x2="15.34" y2="997.99"/>
      <line class="cls-4" x1="42.28" y1="976.13" x2="42.28" y2="1012.68"/>
      <line class="cls-4" x1="23.08" y1="979.9" x2="42.28" y2="991.81"/>
      <line class="cls-4" x1="61.29" y1="976.13" x2="61.29" y2="1012.68"/>
      <polyline class="cls-4" points="74.36 1012.68 74.36 976.13 84.66 994.41 94.95 976.13 94.95 1012.68"/>
      <line class="cls-4" x1=".99" y1="773.41" x2=".99" y2="809.96"/>
      <line class="cls-4" x1="-18.22" y1="777.18" x2=".99" y2="789.09"/>
      <line class="cls-4" x1="20" y1="773.41" x2="20" y2="809.96"/>
      <polyline class="cls-4" points="33.07 809.96 33.07 773.41 43.36 791.69 53.66 773.41 53.66 809.96"/>
      <polyline class="cls-4" points="109.41 974.17 126.3 996.03 109.41 1014.57"/>
      <polyline class="cls-4" points="122.08 975.06 105.19 996.91 122.08 1015.45"/>
      <polyline class="cls-4" points="41.14 922.45 58.04 944.3 41.14 962.84"/>
      <polyline class="cls-4" points="53.82 923.34 36.92 945.19 53.82 963.73"/>
      <polygon class="cls-4" points="30.69 875.19 30.69 912.87 43.89 902.92 31.74 894.03 42.57 884.54 30.69 875.19"/>
      <polyline class="cls-4" points="67.38 912.87 67.38 875.19 81.38 886.04 68.44 898.1"/>
      <polyline class="cls-4" points="6.92 912.87 6.92 875.19 17.75 887.55"/>
      <line class="cls-4" x1="-4.43" y1="887.55" x2="6.92" y2="875.19"/>
      <line class="cls-4" x1="88.83" y1="911.74" x2="88.83" y2="875.19"/>
      <line class="cls-4" x1="106.25" y1="875.19" x2="106.25" y2="911.74"/>
      <line class="cls-4" x1="88.83" y1="887.55" x2="106.25" y2="897.05"/>
      <ellipse class="cls-5" cx="54.55" cy="884.95" rx="2.41" ry="2.75"/>
      <ellipse class="cls-5" cx="54.55" cy="903.41" rx="2.41" ry="2.75"/>
      <ellipse class="cls-5" cx="129.27" cy="833.39" rx="2.41" ry="2.75"/>
      <ellipse class="cls-5" cx="129.27" cy="851.86" rx="2.41" ry="2.75"/>
      <polyline class="cls-4" points="122.28 964.34 122.28 926.67 136.27 937.52 123.33 949.57"/>
      <polyline class="cls-4" points="7.21 963.21 7.21 926.67 17.51 944.94 27.8 926.67 27.8 963.21"/>
      <ellipse class="cls-5" cx="133.17" cy="985.89" rx="2.41" ry="2.75"/>
      <ellipse class="cls-5" cx="133.17" cy="1004.35" rx="2.41" ry="2.75"/>
      <line class="cls-4" x1="68.09" y1="771.76" x2="68.09" y2="809.28"/>
      <line class="cls-4" x1="83.34" y1="778.76" x2="68.09" y2="795.72"/>
      <line class="cls-4" x1="78.39" y1="772.73" x2="68.09" y2="785.09"/>
      <polyline class="cls-4" points="91.86 809.28 91.86 771.76 106.71 785.09 109.08 809.28"/>
      <polyline class="cls-4" points="119.77 771.76 119.77 807.02 133.24 791.01 120.57 781.48"/>
      <polyline class="cls-4" points="119.77 874.66 119.77 909.93 133.24 893.92 120.57 884.39"/>
      <polyline class="cls-4" points="6.97 827.8 6.97 861.94 -5.97 848.37"/>
      <polyline class="cls-4" points="66.55 963.21 83.98 937.4 73.88 925.42 66.55 937.63 83.98 963.21"/>
      <polyline class="cls-4" points="103.19 936.39 88.87 949.38 103.19 963.21"/>
      <polyline class="cls-4" points="76.25 717.99 93.14 739.85 76.25 758.38"/>
      <polyline class="cls-4" points="88.92 718.88 72.03 740.73 88.92 759.27"/>
      <line class="cls-4" x1="10.24" y1="722.21" x2="10.24" y2="758.76"/>
      <line class="cls-4" x1="-8.97" y1="725.98" x2="10.24" y2="737.88"/>
      <line class="cls-4" x1="29.25" y1="722.21" x2="29.25" y2="758.76"/>
      <polyline class="cls-4" points="42.31 758.76 42.31 722.21 52.61 740.48 62.91 722.21 62.91 758.76"/>
      <polyline class="cls-4" points="101.66 758.76 119.08 732.94 108.99 720.96 101.66 733.17 119.08 758.76"/>
      <polyline class="cls-4" points="138.29 731.93 123.97 744.92 138.29 758.76"/>
      <polyline class="cls-4" points="104.37 925.42 117.84 939.02 104.37 950.96"/>
      <polyline class="cls-4" points="113.74 825.26 101.86 842.89 120.87 842.89 111.36 861.73"/>
      <line class="cls-4" x1="87.57" y1="824.05" x2="87.57" y2="861.73"/>
      <polyline class="cls-4" points="98.43 826.46 87.57 839.73 76.78 826.46"/>
      <ellipse class="cls-5" cx="30.8" cy="833.4" rx="2.41" ry="2.75"/>
      <ellipse class="cls-5" cx="56.84" cy="851.86" rx="2.41" ry="2.75"/>
      <polyline class="cls-4" points="68.95 825.26 58.46 833.4 48.56 824.05 47.43 863.42 58.19 851.86 68.95 861.73"/>
    </g>
    <g>
      <line class="cls-4" x1=".99" y1="1073.84" x2=".99" y2="1110.39"/>
      <line class="cls-4" x1="-18.22" y1="1077.61" x2=".99" y2="1089.51"/>
      <line class="cls-4" x1="20" y1="1073.84" x2="20" y2="1110.39"/>
      <polyline class="cls-4" points="33.07 1110.39 33.07 1073.84 43.36 1092.11 53.66 1073.84 53.66 1110.39"/>
      <line class="cls-4" x1="68.09" y1="1072.18" x2="68.09" y2="1109.71"/>
      <line class="cls-4" x1="83.34" y1="1079.19" x2="68.09" y2="1096.15"/>
      <line class="cls-4" x1="78.39" y1="1073.16" x2="68.09" y2="1085.52"/>
      <polyline class="cls-4" points="91.86 1109.71 91.86 1072.18 106.71 1085.52 109.08 1109.71"/>
      <polyline class="cls-4" points="119.77 1072.18 119.77 1107.45 133.24 1091.44 120.57 1081.9"/>
      <polyline class="cls-4" points="76.25 1018.42 93.14 1040.27 76.25 1058.81"/>
      <polyline class="cls-4" points="88.92 1019.31 72.03 1041.16 88.92 1059.7"/>
      <line class="cls-4" x1="10.24" y1="1022.63" x2="10.24" y2="1059.18"/>
      <line class="cls-4" x1="-8.97" y1="1026.4" x2="10.24" y2="1038.31"/>
      <line class="cls-4" x1="29.25" y1="1022.63" x2="29.25" y2="1059.18"/>
      <polyline class="cls-4" points="42.31 1059.18 42.31 1022.63 52.61 1040.91 62.91 1022.63 62.91 1059.18"/>
      <polyline class="cls-4" points="101.66 1059.18 119.08 1033.37 108.99 1021.39 101.66 1033.59 119.08 1059.18"/>
      <polyline class="cls-4" points="138.29 1032.36 123.97 1045.35 138.29 1059.18"/>
    </g>
  </g>
  <path class="cls-9" d="M623.96,323.11c91.05,24.37,222.86,50.18,383.27,50.18s292.22-25.81,383.27-50.18c-110.22,14.51-239.19,25.09-383.27,25.09s-273.04-10.58-383.27-25.09Z"/>
  <path class="cls-9" d="M1390.49,735.07c-91.05-24.37-222.86-50.18-383.27-50.18s-292.22,25.81-383.27,50.18c110.22-14.51,239.19-25.09,383.27-25.09s273.04,10.58,383.27,25.09Z"/>
  <g>
    <path class="cls-8" d="M694.14,529.47c-23.4-.48-46.79-1-70.18-1.64v-194c22,4.94,44.05,9.52,66.19,13.78,26.71,5.36,52.79,23.85,51.87,53.89,0,4.16,0,6.24,0,10.4.31,12.34-5.97,23.7-17.38,28.83,12.99,6.83,22.56,19.66,21.77,34.91,0,4.04,0,6.06,0,10.09,1.04,29.8-25.84,44-52.25,43.75ZM658.98,377.63c0,12.87,0,25.73,0,38.6,12.25,1.7,24.52,3.3,36.79,4.82,2.43.3,3.79-.65,3.79-3.44,0-9.67,0-19.34,0-29.01,0-2.79-1.36-4.13-3.79-4.53-12.29-2.02-24.55-4.17-36.8-6.44ZM658.98,451.33c0,13.74,0,27.49,0,41.23,13.61.63,27.23,1.21,40.84,1.77,2.45.1,3.82-.96,3.82-3.73,0-10.46,0-20.92,0-31.38,0-2.78-1.37-4-3.82-4.21-13.62-1.17-27.24-2.38-40.85-3.69Z"/>
    <path class="cls-8" d="M780.02,528.31c.06-54.48.12-108.96.19-163.44,43.05,6.12,86.2,10.57,129.59,13.45-.04,10.17-.08,20.34-.12,30.51-27.33-1.44-54.63-3.29-81.89-5.79-.02,9.99-.04,19.99-.06,29.98,24.86,1.69,49.73,3.07,74.63,4.15-.04,10.04-.08,20.09-.11,30.13-24.87-.73-49.72-1.66-74.58-2.81-.02,10.65-.04,21.31-.07,31.96,27.84.67,55.68,1.19,83.53,1.58-.04,10.16-.08,20.33-.12,30.49-43.66-.03-87.32-.1-130.99-.2Z"/>
    <path class="cls-8" d="M1072.01,528.45c-3.4-10.96-6.82-21.91-10.25-32.86-26.32.2-52.63.27-78.95.21-4.17,10.9-8.31,21.8-12.43,32.72-17.13,0-34.26,0-51.39-.01,15.88-40.49,32.27-80.77,49.02-120.91,10.02-24.6,30.46-28.14,55.23-27.48,18.2.13,36.38.03,54.58-.31,16.36,49.36,32.26,98.87,47.59,148.56-17.8.03-35.61.05-53.41.07ZM994.21,466.39c19.45.03,38.89-.06,58.33-.27-5.81-18.52-11.66-37.02-17.54-55.52-5.84.08-8.77.11-14.67.15-3.88.03-4.67.95-5.47,3.27-6.88,17.46-13.79,34.9-20.65,52.37Z"/>
    <path class="cls-8" d="M1221.7,430.09c27.2-2.21,57.4,6.85,56.07,39.62-.02,6.21-.04,9.32-.06,15.53.97,32.6-28.49,44.65-56.51,44.23-26.3-.41-52.61-.77-78.91-1.12.06-10.35.13-20.69.19-31.04,28.51-.56,57.02-1.26,85.52-2.1,2.83-.09,4.39-1.16,4.4-3.73.05-9.75.07-14.62.12-24.37.01-2.57-1.54-3.5-4.37-3.34-9.5.55-19,1.06-28.5,1.53-25.5.19-62.04-4.82-62.33-37.69.03-5.28.05-7.92.08-13.19.67-31.91,36.45-43.39,62.78-46.03,23.72-2.62,47.39-5.58,71-9.11-.05,11.43-.09,22.86-.14,34.29-25.93,3.43-51.89,6.4-77.92,8.95-2.96.28-4.62,1.42-4.64,3.9-.05,9.11-.08,13.67-.13,22.79-.01,2.48,1.64,3.35,4.6,3.14,9.58-.69,19.16-1.44,28.74-2.25Z"/>
    <path class="cls-8" d="M1319.66,527.97c.13-47.23.25-94.45.38-141.68-13.39,2.16-26.8,4.15-40.23,6.07.04-11.53.09-23.06.13-34.6,37.62-6.77,74.93-14.7,112.02-23.94v39.41c-11.26,2.23-22.53,4.39-33.81,6.49-.07,49.39-.14,98.77-.2,148.16-12.76.03-25.52.05-38.29.08Z"/>
    <path class="cls-8" d="M699.43,705.51c-24.13,4.79-48.16,9.95-72.06,15.77,0-51.05,0-102.1,0-153.15,10.68-.51,16.23-.77,27.77-1.28,0,39.29,0,78.58,0,117.88,14.74-2.72,29.5-5.3,44.29-7.76,0,9.51,0,19.02,0,28.54Z"/>
    <path class="cls-8" d="M709.23,597.5c-.39-24.49,18.3-36.04,40.98-36.32,10.46-.31,20.92-.6,31.38-.86,20.02-.75,46.3,5.59,45.78,30.37-.04,21.94-.09,43.87-.13,65.81-.31,24.73-24.74,34.23-45.8,37.29-10.45,1.48-20.9,3.08-31.32,4.8-21.53,3.97-41.49-2.91-40.91-27.78,0-24.44.01-48.87.02-73.31ZM746.44,589.3c-2.11.12-3.27,1.03-3.27,3.15-.02,25.42-.03,50.84-.05,76.26,0,2.11,1.16,2.79,3.27,2.5,13-1.8,26.01-3.45,39.04-4.98,2.23-.26,3.48-1.21,3.48-3.24l.1-73.1c0-2.03-1.25-2.78-3.48-2.67-13.03.63-26.06,1.32-39.09,2.07Z"/>
    <path class="cls-8" d="M964.79,676.45c-19.67.52-39.33,1.38-58.96,2.64-20.21,1.76-49.41-.89-49.84-26.91.05-20.23.11-40.47.16-60.7.65-25.92,28.95-31.85,50.14-31.61,19.71-.25,39.43-.42,59.14-.53-.05,9.81-.08,14.72-.14,24.53-21.22.24-42.44.6-63.65,1.08-2.55.06-3.97.85-3.98,2.74-.08,21.42-.16,42.84-.24,64.26,0,1.88,1.4,2.56,3.95,2.42,21.17-1.1,42.35-1.91,63.54-2.44-.05,9.81-.08,14.72-.14,24.53Z"/>
    <path class="cls-8" d="M1035.36,629.17c-.11,15.64-.21,31.29-.32,46.93-15.16-.2-30.3-.24-45.46-.12.24-38.92.48-77.83.73-116.75,15.17-.03,30.35-.03,45.52,0-.1,15.4-.21,30.8-.31,46.2,11.18.09,16.72.16,27.65.35,2.97.05,3.27-.68,4.47-2.51,9.46-14.49,18.82-29.03,28.08-43.65,13.88.15,27.76.32,41.65.53-8.46,13.83-17.1,27.55-25.85,41.19-6.33,9.77-10.37,14.68-18.49,17.04,9.8,2.56,16.28,10.58,21.39,18.82,9.6,14.66,19.03,29.41,28.29,44.28-14.66-1.17-29.33-2.19-44.01-3.06-10.16-15.47-20.48-30.81-30.96-46.07-1.17-1.88-1.46-2.63-4.43-2.7-11.05-.25-16.65-.35-27.95-.47Z"/>
    <path class="cls-8" d="M1160.49,683.05c.24-40.84.49-81.67.73-122.51,32.61.62,65.21,1.41,97.81,2.39-.05,10.76-.07,16.14-.11,26.89-19.55-1.1-39.11-2.05-58.67-2.91-.05,9.59-.08,14.39-.13,23.99,17.98,1.13,35.94,2.38,53.9,3.77-.05,10.54-.07,15.81-.12,26.36-17.96-1.81-35.93-3.46-53.92-4.95-.06,10.23-.08,15.34-.14,25.57,20.01,2.05,39.99,4.3,59.93,6.93-.05,10.77-.07,16.15-.11,26.92-32.95-5.06-65.99-9.19-99.17-12.46Z"/>
    <path class="cls-8" d="M1283.07,699.37l.5-135.64c19.5.34,38.99.7,58.49,1.1,23.83.1,36.35,18.36,36.07,40.86,0,7.33,0,11-.01,18.33.51,12.95-4.84,27.16-17.03,33,4.69,3.99,7.74,9.66,10.21,18.6,3.94,14.74,7.81,29.5,11.6,44.28-9.44-2.27-18.91-4.45-28.4-6.53-4.52-17.03-9.14-34.03-13.86-51.01-.82-2.63-1.01-3.79-3.5-4.16-8.19-1.22-12.38-1.82-20.93-3.01-.05,16.74-.09,33.48-.14,50.22-10.99-2.09-21.99-4.11-33.01-6.05ZM1316.39,592.37c-.03,11.5-.06,23.01-.1,34.51,9.98,1.07,19.95,2.2,29.91,3.39,1.82.22,2.83-.58,2.83-2.88.02-9.8.03-19.6.05-29.41,0-2.3-1-3.29-2.82-3.43-9.96-.77-19.92-1.49-29.88-2.18Z"/>
  </g>
  <text class="cls-7" transform="translate(1422.24 747.69) scale(1.13 1)"><tspan x="0" y="0">R</tspan></text>
  <ellipse class="cls-2" cx="1433.85" cy="735.57" rx="22.36" ry="19.84"/>
</svg>