<svg width="32" height="34" viewBox="0 0 32 34" fill="none" xmlns="http://www.w3.org/2000/svg">
<path d="M0 16.1528C0 18.9241 0.696685 21.7904 1.99505 24.4984C1.56754 25.0051 1.48837 25.9394 1.94755 26.8579L4.98763 33.0498C5.28847 33.6674 5.96932 34 6.63434 34C7.41019 34 8.17021 33.5249 8.24938 32.5589L4.76596 25.4802C3.61009 23.1206 2.75507 19.7476 2.75507 16.1686C2.75507 8.3456 8.09104 3.07219 15.9921 3.07219C23.8931 3.07219 29.2449 8.3456 29.2449 16.1686C29.2449 19.7476 28.3741 23.1206 27.2182 25.4802L23.7348 32.5589C23.814 33.5249 24.574 34 25.3657 34C26.0148 34 26.6957 33.6674 27.0124 33.0498L30.0366 26.8579C30.4958 25.9394 30.4325 25.0051 30.0049 24.4984C31.3033 21.7904 32 18.9241 32 16.1528C32 7.07871 25.714 0 15.9921 0C6.27016 0 0 7.07871 0 16.1528ZM8.66106 22.0121C8.07521 20.8086 6.95101 20.5394 6.09599 20.8878C5.14597 21.2837 4.49678 22.4238 5.19347 23.8808L9.15191 31.9096C9.78526 33.2082 10.957 33.6674 12.0653 33.0973C13.0153 32.6223 13.3478 31.5454 12.7937 30.4052L8.66106 22.0121ZM23.3231 22.0121L19.1905 30.4052C18.6363 31.5454 18.9847 32.6223 19.9347 33.0973C21.043 33.6674 22.1989 33.2082 22.8481 31.9096L26.7907 23.8808C27.5032 22.4238 26.8382 21.2837 25.8882 20.8878C25.0332 20.5394 23.9248 20.8086 23.3231 22.0121Z" fill="#1C1C1E"/>
</svg>
