<svg width="41" height="30" viewBox="0 0 41 30" fill="none" xmlns="http://www.w3.org/2000/svg">
<path d="M5.69877 30H35.3012C39.06 30 41 28.0439 41 24.3393V5.64339C41 1.93883 39.06 0 35.3012 0H5.69877C1.95733 0 0 1.93883 0 5.64339V24.3393C0 28.0612 1.95733 30 5.69877 30ZM5.92395 3.4622H19.3654V8.84593C18.2915 6.78592 16.4554 5.52222 14.3942 5.52222C11.9518 5.52222 10.1331 7.35718 10.1331 9.79804C10.1331 11.858 11.5015 13.5545 13.4761 14.5239H3.44698V5.95499C3.44698 4.29313 4.33038 3.4622 5.92395 3.4622ZM27.5412 14.5239C29.5158 13.5545 30.8669 11.858 30.8669 9.79804C30.8669 7.35718 29.0482 5.52222 26.6058 5.52222C24.5446 5.52222 22.7258 6.78592 21.6346 8.84593V3.4622H35.076C36.6696 3.4622 37.553 4.29313 37.553 5.95499V14.5239H27.5412ZM18.6033 14.3162C15.4335 14.3162 12.7313 12.1177 12.7313 10.075C12.7313 8.88055 13.4588 8.13618 14.6193 8.13618C16.9924 8.13618 19.071 10.8194 19.071 13.8661V14.3162H18.6033ZM22.3967 14.3162H21.929V13.8661C21.929 10.8194 24.0249 8.13618 26.3806 8.13618C27.5412 8.13618 28.286 8.88055 28.286 10.075C28.286 12.1177 25.5839 14.3162 22.3967 14.3162ZM35.076 26.5378H21.6346V18.0035H21.7558C22.899 21.4137 26.7444 24.2527 29.308 24.6682C30.3992 24.824 31.0401 24.0277 31.0401 23.2141C31.0401 22.3485 30.5032 21.7773 29.5505 21.6388C27.316 21.3445 24.3021 18.5747 23.3321 16.6186H37.553V24.045C37.553 25.7069 36.6696 26.5378 35.076 26.5378ZM5.92395 26.5378C4.33038 26.5378 3.44698 25.7069 3.44698 24.045V16.6186H17.6853C16.7153 18.5747 13.684 21.3445 11.4495 21.6388C10.4968 21.7773 9.97719 22.3485 9.97719 23.2141C9.97719 24.0277 10.6181 24.824 11.692 24.6682C14.2556 24.2527 18.1183 21.4137 19.2442 18.0035H19.3654V26.5378H5.92395Z" fill="#1C1C1E"/>
</svg>
