<svg width="17" height="18" viewBox="0 0 17 18" fill="none" xmlns="http://www.w3.org/2000/svg">
<path d="M8.50483 9.04334C10.8437 9.04334 12.7379 6.98234 12.7379 4.45907C12.7379 1.97432 10.8437 0 8.50483 0C6.17567 0 4.26208 2.00321 4.27175 4.47833C4.28141 6.99197 6.166 9.04334 8.50483 9.04334ZM8.50483 7.35794C7.17112 7.35794 6.04036 6.09631 6.04036 4.47833C6.0307 2.89888 7.16146 1.68539 8.50483 1.68539C9.85787 1.68539 10.9693 2.87961 10.9693 4.45907C10.9693 6.07705 9.84821 7.35794 8.50483 7.35794ZM2.47413 18H14.5259C16.1978 18 17 17.4703 17 16.3339C17 13.6854 13.685 10.1605 8.50483 10.1605C3.32462 10.1605 0 13.6854 0 16.3339C0 17.4703 0.80216 18 2.47413 18ZM2.17453 16.3146C1.94258 16.3146 1.8556 16.2376 1.8556 16.0642C1.8556 14.5907 4.24275 11.8459 8.50483 11.8459C12.7572 11.8459 15.1444 14.5907 15.1444 16.0642C15.1444 16.2376 15.0574 16.3146 14.8255 16.3146H2.17453Z" fill="#1E1E1E"/>
</svg>
