<svg width="16" height="19" viewBox="0 0 16 19" fill="none" xmlns="http://www.w3.org/2000/svg">
<path d="M2.8916 18.4307H13.2275C14.9238 18.4307 15.9082 17.4463 15.9082 15.5654V6.46875C15.9082 4.58789 14.915 3.60352 13.0166 3.60352H11.7773C11.7334 1.63477 10.0547 0 7.9541 0C5.8623 0 4.1748 1.63477 4.13086 3.60352H2.8916C0.993164 3.60352 0 4.58789 0 6.46875V15.5654C0 17.4463 0.993164 18.4307 2.8916 18.4307ZM7.9541 1.55566C9.1582 1.55566 10.0459 2.46094 10.0811 3.60352H5.82715C5.8623 2.46094 6.75 1.55566 7.9541 1.55566ZM3.00586 16.6816C2.19727 16.6816 1.74902 16.2598 1.74902 15.4072V6.62695C1.74902 5.7832 2.19727 5.36133 3.00586 5.36133H12.9023C13.7021 5.36133 14.1592 5.7832 14.1592 6.62695V15.4072C14.1592 16.2598 13.7021 16.6816 13.1133 16.6816H3.00586Z" fill="#1C1C1E"/>
</svg>
