<svg width="19" height="15" viewBox="0 0 19 15" fill="none" xmlns="http://www.w3.org/2000/svg">
<path d="M0.829292 2.20911H18.1615C18.6222 2.20911 19 1.70871 19 1.09845C19 0.488202 18.6314 0 18.1615 0H0.829292C0.35936 0 0 0.488202 0 1.09845C0 1.70871 0.368574 2.20911 0.829292 2.20911ZM0.829292 8.60456H18.1615C18.6222 8.60456 19 8.10415 19 7.4939C19 6.88365 18.6314 6.39544 18.1615 6.39544H0.829292C0.35936 6.39544 0 6.88365 0 7.4939C0 8.10415 0.368574 8.60456 0.829292 8.60456ZM0.829292 15H18.1615C18.6222 15 19 14.4996 19 13.8893C19 13.2791 18.6314 12.7909 18.1615 12.7909H0.829292C0.35936 12.7909 0 13.2791 0 13.8893C0 14.4996 0.368574 15 0.829292 15Z" fill="#1C1C1E"/>
</svg>
