<svg width="126" height="24" viewBox="0 0 126 24" fill="none" xmlns="http://www.w3.org/2000/svg">
<path d="M42.0137 20.7115L36.5938 20.6328V8.03219L41.7741 7.95351C43.5543 7.93342 44.4334 8.70683 44.4334 10.3742V12.378C44.4334 13.2502 44.133 13.8261 43.534 14.1442C44.3338 14.4221 44.7337 15.018 44.7337 16.1078V18.2506C44.7337 19.8376 43.7736 20.7316 42.0137 20.7115ZM38.1343 9.26094V13.5867H42.5941C42.7342 13.5867 42.8337 13.508 42.8337 13.3289V9.51875C42.8337 9.33962 42.7544 9.26094 42.5941 9.26094H38.1343ZM38.1343 14.8573V19.3622H42.8945C43.0345 19.3622 43.1341 19.2835 43.1341 19.1044V15.0967C43.1341 14.9377 43.0548 14.859 42.8945 14.859H38.1343V14.8573Z" fill="#1C1C1E"/>
<path d="M49.2127 20.7302C47.5118 20.7302 46.793 20.1945 46.793 18.5874V12.8537C46.793 11.2667 47.3734 10.7695 49.0136 10.7695H51.1532C52.7933 10.7695 53.4531 11.2651 53.4531 12.8537V16.8028H48.2931V19.3223C48.2931 19.4612 48.3538 19.5014 48.4736 19.5014H53.2135V20.7318H49.2127V20.7302ZM48.2931 15.7097H51.9733V12.1573C51.9733 12.0385 51.894 11.9782 51.7742 11.9782H48.4736C48.3538 11.9782 48.2931 12.0385 48.2931 12.1573V15.7097Z" fill="#1C1C1E"/>
<path d="M57.1137 20.7684C55.5934 20.7684 54.9336 20.2729 54.9336 18.7645V17.0972C54.9336 15.5303 55.5934 15.0331 57.2335 15.0331H60.0936V12.2943C60.0936 12.1755 60.0329 12.1152 59.9131 12.1152L55.4736 12.1353V10.9049L59.2533 10.8848C60.8935 10.8848 61.5937 11.4004 61.5937 13.0075V20.6278H60.2742L60.1341 19.7556C59.935 20.4503 59.4541 20.7667 58.494 20.7667H57.1137V20.7684ZM60.0936 16.1262H56.594C56.4944 16.1262 56.4134 16.1865 56.4134 16.3054V19.3806C56.4134 19.4995 56.4927 19.5597 56.594 19.5597H60.0936V16.1262Z" fill="#1C1C1E"/>
<path d="M63.3962 20.7117V19.5014H67.937C68.0568 19.5014 68.1175 19.4612 68.1175 19.3223V16.4446C68.1175 16.3257 68.0568 16.2655 67.937 16.2655H65.5577C63.9176 16.2655 63.2578 15.7699 63.2578 14.2013V12.8922C63.2578 11.2851 63.9378 10.7695 65.578 10.7695L69.1384 10.7896V12.0201L64.9385 12C64.8187 12 64.7579 12.0602 64.7579 12.1791V14.9178C64.7579 15.0568 64.8187 15.097 64.9385 15.097H67.2991C68.9393 15.097 69.599 15.5925 69.599 17.1611V18.7079C69.599 20.2162 68.9393 20.7117 67.4189 20.7117H63.3979H63.3962Z" fill="#1C1C1E"/>
<path d="M75.5754 12.0588H73.235V19.222C73.235 19.3409 73.2957 19.4012 73.4155 19.4012H75.5754V20.6316H74.1749C72.474 20.6316 71.7551 20.0758 71.7551 18.4888V12.0604H70.5352V10.9087H71.7551V8.42773H73.235V10.9087H75.5754V12.0604V12.0588Z" fill="#1C1C1E"/>
<path d="M87.3952 20.6302H81.0742V8.03125H82.6148V19.3027H87.3952V20.6319V20.6302Z" fill="#1C1C1E"/>
<path d="M88.2969 12.9123C88.2969 11.3253 89.0174 10.7695 90.7166 10.7695H92.7769C94.4778 10.7695 95.1966 11.3253 95.1966 12.9123V18.6075C95.1966 20.2145 94.4761 20.7703 92.7769 20.7703H90.7166C89.0157 20.7703 88.2969 20.2145 88.2969 18.6075V12.9123ZM89.9758 12C89.8763 12 89.7953 12.0602 89.7953 12.1791V19.3424C89.7953 19.4813 89.8746 19.5416 89.9758 19.5416H93.516C93.6155 19.5416 93.6965 19.4813 93.6965 19.3424V12.1791C93.6965 12.0602 93.6172 12 93.516 12H89.9758Z" fill="#1C1C1E"/>
<path d="M99.4939 20.7703C97.793 20.7703 97.0742 20.2145 97.0742 18.6075V12.9123C97.0742 11.3253 97.7947 10.7695 99.4939 10.7695H102.553V12H98.7532C98.6536 12 98.5726 12.0602 98.5726 12.1791V19.3424C98.5726 19.4813 98.6519 19.5416 98.7532 19.5416H102.553V20.772H99.4939V20.7703Z" fill="#1C1C1E"/>
<path d="M105.674 16.1858V20.6304H104.215V7.23633H105.674V14.9554H108.015C108.135 14.9554 108.175 14.9152 108.216 14.7763L109.496 10.9075H110.936L109.917 14.0029C109.657 14.7964 109.476 15.2534 109.117 15.4911C109.736 15.6702 109.957 16.1456 110.337 17.1384L111.697 20.6304H110.197L108.557 16.3649C108.496 16.226 108.477 16.1858 108.356 16.1858H105.676H105.674Z" fill="#1C1C1E"/>
<path d="M115.076 20.7302C113.375 20.7302 112.656 20.1945 112.656 18.5874V12.8537C112.656 11.2667 113.237 10.7695 114.877 10.7695H117.016C118.657 10.7695 119.316 11.2651 119.316 12.8537V16.8028H114.156V19.3223C114.156 19.4612 114.217 19.5014 114.337 19.5014H119.077V20.7318H115.076V20.7302ZM114.156 15.7097H117.837V12.1573C117.837 12.0385 117.757 11.9782 117.637 11.9782H114.337C114.217 11.9782 114.156 12.0385 114.156 12.1573V15.7097Z" fill="#1C1C1E"/>
<path d="M125.514 10.7695V12.0401H122.934C122.834 12.0401 122.753 12.0803 122.753 12.2193L122.774 20.6331H121.294L121.273 10.9102H122.573L122.693 11.6451C122.932 11.0491 123.472 10.7712 124.353 10.7712H125.514V10.7695Z" fill="#1C1C1E"/>
<path d="M28.8831 0.000358006H10.6576C10.6576 0.000358006 1.51191 -0.188809 1.51191 8.12957C3.10143 6.31489 5.22249 4.8819 10.6576 4.8819H17.0039L13.9581 7.90357H9.90163C9.90163 7.90357 0.755953 7.7144 0.755953 16.0328C2.34548 14.2181 4.46653 12.7851 9.90163 12.7851H15.9948L12.9491 15.8068H9.14568C9.14568 15.8068 0 15.6193 0 23.936C1.58953 22.1213 3.71058 20.6883 9.14568 20.6883H15.9948L20.9153 15.8068L28.8815 7.90357H20.9153L28.8831 0.000358006Z" fill="#1C1C1E"/>
</svg>
