<svg width="364" height="141" viewBox="0 0 364 141" fill="none" xmlns="http://www.w3.org/2000/svg">
<g clip-path="url(#clip0_64_8601)">
<path d="M114.195 44.814C113.973 45.059 113.521 45.5934 112.831 46.4117C112.14 47.2356 111.422 48.1208 110.681 49.0616C109.941 50.0024 109.284 50.8709 108.71 51.6669C108.665 51.7282 108.638 51.7727 108.599 51.8284C108.153 52.2125 107.696 52.6133 107.212 53.0531C106.505 53.6878 105.731 54.2779 104.879 54.8123C104.027 55.3467 103.069 55.6585 102.005 55.7364C101.337 55.7865 100.702 55.5805 100.112 55.1185C99.5213 54.6564 99.2039 54.1053 99.1537 53.4706C99.1315 53.17 99.1649 52.8471 99.2595 52.502C99.421 52.5298 99.5992 52.5354 99.7942 52.5187C100.741 52.4463 101.749 52.1847 102.824 51.7226C103.898 51.2661 104.923 50.6872 105.903 49.9913C106.878 49.2954 107.774 48.5327 108.582 47.6977C109.389 46.8627 110.002 46.0554 110.42 45.2705C110.564 45.0701 110.692 44.7918 110.798 44.4243C110.91 44.0569 110.954 43.7619 110.938 43.5392C110.871 42.6429 110.514 42.0584 109.879 41.7856C109.245 41.5128 108.532 41.407 107.747 41.4683C106.249 41.5796 104.617 42.1697 102.851 43.2219C101.086 44.2796 99.4489 45.56 97.9397 47.0686C96.4305 48.5773 95.1831 50.1973 94.203 51.9286C93.2229 53.6599 92.7885 55.2521 92.8999 56.7162C93.0057 58.1413 93.5681 59.1378 94.5872 59.7223C95.6008 60.3013 96.8037 60.5407 98.1792 60.4349C99.2818 60.3514 100.418 60.0508 101.587 59.5275C102.757 59.0042 103.887 58.3751 104.984 57.6347C106.076 56.8943 107.106 56.0927 108.075 55.2242C108.994 54.4003 109.79 53.6042 110.464 52.8304C110.832 52.541 111.166 52.2403 111.455 51.9175C111.745 51.5946 112.04 51.2717 112.335 50.9488L116.211 47.1521C116.3 48.349 116.222 49.5404 115.977 50.7261C115.732 51.9119 115.309 53.0364 114.719 54.0941L114.457 54.5673C113.967 54.417 113.744 54.0941 113.789 53.6042C113.856 53.4873 113.956 53.3315 114.078 53.1311C114.201 52.9362 114.257 52.7803 114.251 52.6634C114.223 52.2904 113.989 52.1179 113.56 52.1513C113.009 52.1958 112.486 52.374 111.996 52.6913C111.506 53.0086 111.06 53.4038 110.659 53.8659C110.258 54.328 109.952 54.8401 109.735 55.4024C109.517 55.9646 109.428 56.4879 109.467 56.9778C109.512 57.5401 109.774 57.9799 110.253 58.3028C110.731 58.6256 111.249 58.7648 111.801 58.7203C112.352 58.6758 112.909 58.5533 113.466 58.3417C114.023 58.1302 114.529 57.8741 114.981 57.5791C117.03 56.3321 118.695 54.7566 119.976 52.8527C120.126 52.63 120.271 52.4018 120.41 52.168C120.154 53.0309 120.048 53.8603 120.109 54.6453C120.215 56.0704 120.778 57.0669 121.797 57.6514C122.81 58.2304 124.013 58.4698 125.389 58.364C126.491 58.2805 127.628 57.9799 128.797 57.4566C129.966 56.9333 131.097 56.3042 132.194 55.5638C133.286 54.8234 134.316 54.0218 135.285 53.1533C136.204 52.3294 136.994 51.5333 137.668 50.7651C137.891 50.5981 138.203 50.2919 138.604 49.8521C139.005 49.4068 139.434 48.9447 139.896 48.4548C140.352 47.9705 140.781 47.4862 141.182 47.0018C141.583 46.5175 141.889 46.1557 142.112 45.9163L141.85 46.3895C141.489 46.8682 141.076 47.4361 140.614 48.093C140.146 48.7499 139.712 49.429 139.311 50.1416C138.91 50.8486 138.576 51.5612 138.314 52.2793C138.052 52.9975 137.941 53.6543 137.986 54.25C138.103 55.7865 138.949 56.4935 140.525 56.371C141.472 56.2987 142.391 56.0426 143.293 55.5972C144.189 55.1519 145.053 54.6063 145.877 53.9605C146.701 53.3148 147.47 52.6245 148.188 51.8952C148.906 51.1659 149.558 50.4756 150.143 49.8243C150.315 49.635 150.555 49.3511 150.85 48.9837C151.212 48.6107 151.563 48.2544 151.897 47.9371C151.518 48.722 151.128 49.674 150.716 50.7929C150.304 51.9175 150.131 52.9084 150.198 53.7713C150.243 54.3335 150.404 54.7789 150.688 55.1185C150.972 55.4525 151.429 55.5972 152.058 55.5471C153.083 55.4692 154.13 55.0572 155.205 54.3224C156.28 53.582 157.349 52.6523 158.412 51.5389C159.476 50.4255 160.534 49.1952 161.581 47.8536C162.628 46.5119 163.63 45.1759 164.577 43.8398C165.524 42.5093 166.443 41.2679 167.328 40.1322C168.214 38.991 169.027 38.0724 169.767 37.3766C169.912 37.2541 170.063 37.1093 170.213 36.9479C170.358 36.7865 170.525 36.6584 170.72 36.5693C170.831 36.4858 170.976 36.4357 171.154 36.4246C171.332 36.4135 171.494 36.3634 171.65 36.2743C171.845 36.2242 172.073 36.1017 172.335 35.9124C172.596 35.7232 172.858 35.5172 173.12 35.2889C173.382 35.0607 173.588 34.8213 173.749 34.5652C173.911 34.3092 173.983 34.0865 173.966 33.8972C173.938 33.5242 173.705 33.3516 173.27 33.385C171.928 33.4853 170.48 34.1032 168.921 35.2388C167.362 36.3745 165.836 37.705 164.349 39.2304C162.856 40.7557 161.47 42.3089 160.183 43.8955C158.897 45.4821 157.856 46.7736 157.059 47.7756C157.187 47.3526 157.449 46.6845 157.861 45.766C158.268 44.853 158.691 43.8955 159.131 42.9045C159.571 41.9136 159.949 41.0006 160.261 40.1656C160.573 39.3306 160.723 38.785 160.701 38.5233C160.646 37.8108 160.267 37.4823 159.554 37.538C158.964 37.5825 158.39 37.7384 157.833 38.0056C157.276 38.2728 156.747 38.618 156.246 39.0299C155.745 39.4475 155.283 39.8873 154.859 40.3493C154.442 40.8114 154.046 41.2512 153.679 41.652C153.055 42.3423 152.498 43.0493 151.997 43.7841C151.496 44.519 150.956 45.2482 150.376 45.9664C149.903 46.5286 149.441 47.0909 148.99 47.6532C148.656 48.0707 148.338 48.4993 148.038 48.9336C148.021 48.9447 148.004 48.9558 147.987 48.9725C147.542 49.3455 147.124 49.7352 146.74 50.1416C146.356 50.548 145.994 50.8764 145.654 51.1269C145.353 51.3775 144.997 51.6113 144.579 51.8284L144.045 51.8674C143.917 51.7616 143.844 51.5834 143.827 51.3162C143.777 50.6426 144.05 49.841 144.657 48.9113C145.259 47.9816 145.932 47.0185 146.668 46.022C147.403 45.0256 148.077 44.0513 148.678 43.105C149.279 42.153 149.552 41.3235 149.497 40.6165C149.435 39.8316 149.118 39.3918 148.533 39.3083C147.954 39.2192 147.347 39.2025 146.718 39.2471C146.946 38.6291 147.052 38.1671 147.03 37.8664C146.996 37.4545 146.857 37.1372 146.601 36.9089C146.345 36.6863 145.999 36.586 145.565 36.6194C144.858 36.6751 144.123 36.9201 143.36 37.3543C142.597 37.7885 141.906 38.3118 141.277 38.9242C140.648 39.5365 140.146 40.2046 139.762 40.9283C139.378 41.652 139.216 42.3534 139.267 43.027C139.306 43.5503 139.45 43.9177 139.706 44.1237C139.283 44.8307 138.793 45.5656 138.236 46.3227C137.679 47.0798 137.167 47.7868 136.699 48.4437C136.354 48.928 136.064 49.3567 135.803 49.7519C135.352 50.1416 134.889 50.5424 134.399 50.9933C133.692 51.628 132.918 52.2181 132.066 52.7525C131.214 53.2869 130.256 53.5987 129.192 53.6766C128.524 53.7267 127.895 53.5207 127.299 53.0587C126.709 52.5966 126.391 52.0455 126.341 51.4109C126.319 51.1102 126.352 50.7874 126.447 50.4422C126.608 50.4701 126.787 50.4756 126.982 50.4589C127.928 50.3865 128.936 50.1249 130.017 49.6628C131.091 49.2063 132.116 48.6274 133.096 47.9315C134.071 47.2356 134.967 46.473 135.775 45.6379C136.582 44.8029 137.195 43.9957 137.613 43.2107C137.757 43.0103 137.885 42.732 137.997 42.3646C138.108 41.9971 138.153 41.7021 138.136 41.4794C138.069 40.5831 137.713 39.9986 137.078 39.7258C136.443 39.453 135.73 39.3473 134.945 39.4085C133.447 39.5198 131.815 40.1099 130.05 41.1621C128.285 42.2198 126.647 43.5002 125.138 45.0089C123.852 46.2948 122.766 47.6643 121.864 49.1117C122.148 48.3212 122.365 47.5084 122.526 46.6734C122.577 46.3282 122.643 45.9775 122.716 45.6157C122.788 45.2538 122.81 44.8864 122.783 44.5078C122.755 44.1738 122.705 43.7897 122.638 43.361C122.565 42.9324 122.443 42.5371 122.281 42.1753C122.114 41.8134 121.875 41.5184 121.563 41.2957C121.246 41.073 120.856 40.9839 120.382 41.0173C119.831 41.0619 119.263 41.2066 118.689 41.4571C118.116 41.7077 117.553 42.025 117.008 42.4035C116.462 42.7821 115.944 43.1885 115.465 43.6227C114.981 44.0569 114.557 44.4522 114.19 44.8196L114.195 44.814ZM102.506 47.1132C103.046 46.6567 103.592 46.4117 104.143 46.3672C104.5 46.3394 104.778 46.4117 104.99 46.5843L105.129 46.8571C105.135 46.935 105.112 47.0185 105.062 47.1132C105.012 47.2134 104.968 47.3024 104.934 47.3748H104.996C104.472 47.8257 103.988 48.182 103.531 48.4437C103.074 48.7053 102.473 48.8612 101.721 48.9169C101.404 48.9391 101.164 48.9057 100.997 48.8C101.459 48.1264 101.966 47.5585 102.506 47.102V47.1132ZM129.71 45.0478C130.25 44.5913 130.796 44.3464 131.348 44.3019C131.704 44.274 131.982 44.3464 132.2 44.519L132.339 44.7917C132.344 44.8697 132.322 44.9532 132.272 45.0478C132.222 45.148 132.177 45.2371 132.144 45.3095H132.205C131.682 45.7604 131.197 46.1167 130.741 46.3783C130.284 46.64 129.682 46.7959 128.931 46.8515C128.613 46.8738 128.374 46.8404 128.207 46.7346C128.669 46.061 129.176 45.4932 129.716 45.0367L129.71 45.0478Z" fill="white"/>
<path d="M168.329 55.102C169.432 55.0185 170.568 54.7123 171.737 54.1946C172.907 53.6713 174.037 53.0422 175.134 52.3018C175.374 52.1404 175.597 51.9622 175.825 51.7952C175.825 51.862 175.819 51.9288 175.825 51.9901C175.875 52.6247 176.076 53.2315 176.438 53.8049C176.8 54.3783 177.373 54.6344 178.164 54.5787C179.306 54.4896 180.458 54.1111 181.617 53.443C182.775 52.7694 183.783 52.1014 184.646 51.4334L185.71 50.5594C185.771 51.3443 185.966 52.0068 186.306 52.5468C186.645 53.0868 187.286 53.3206 188.233 53.2482C189.14 53.1814 190.048 52.8919 190.961 52.3909C191.875 51.8899 192.771 51.2942 193.651 50.6039C194.531 49.9192 195.344 49.1843 196.101 48.4105C196.853 47.6367 197.527 46.9464 198.117 46.3396C198.301 46.1392 198.585 45.8219 198.969 45.3988C199.354 44.9757 199.532 44.6138 199.51 44.3132C199.482 43.9402 199.248 43.7677 198.819 43.8011C198.229 43.8456 197.588 44.1573 196.898 44.7363C196.207 45.3153 195.533 45.9388 194.871 46.6124C194.208 47.286 193.573 47.9095 192.961 48.4773C192.348 49.0507 191.808 49.3569 191.334 49.3903C191.095 49.407 190.922 49.3012 190.805 49.0618C190.688 48.828 190.622 48.6165 190.61 48.4272C190.555 47.7146 190.7 46.7627 191.05 45.5714C191.93 44.6417 193.027 43.4058 194.336 41.8749C195.65 40.344 197.026 38.6516 198.468 36.7867C199.911 34.9273 201.353 33.0012 202.79 31.0082C204.226 29.0152 205.518 27.1002 206.666 25.2631C207.813 23.426 208.726 21.7392 209.405 20.1971C210.079 18.6607 210.386 17.4415 210.319 16.5452C210.28 16.0219 210.107 15.61 209.806 15.3149C209.506 15.0199 209.06 14.8918 208.47 14.9364C207.328 15.0254 206.125 15.5376 204.872 16.4784C203.614 17.4192 202.366 18.5994 201.125 20.0079C199.883 21.4219 198.685 22.9862 197.527 24.712C196.369 26.4377 195.299 28.1301 194.314 29.7835C193.328 31.4368 192.454 32.9733 191.691 34.3873C190.928 35.8013 190.354 36.898 189.976 37.6774C189.107 37.7442 188.149 38.0504 187.102 38.6015C186.055 39.1526 184.997 39.8318 183.928 40.6502C182.859 41.4629 181.828 42.3926 180.837 43.4225C179.846 44.458 178.971 45.4934 178.22 46.5289C177.969 46.874 177.746 47.208 177.529 47.5421C177.473 47.5922 177.418 47.6423 177.356 47.6924C176.649 48.327 175.875 48.9171 175.023 49.4515C174.171 49.986 173.213 50.2977 172.15 50.3756C171.481 50.4257 170.846 50.2198 170.256 49.7577C169.666 49.2957 169.348 48.7445 169.298 48.1099C169.276 47.8093 169.309 47.4864 169.404 47.1412C169.566 47.1691 169.744 47.1691 169.939 47.1579C170.885 47.0856 171.893 46.8239 172.968 46.3619C174.043 45.9054 175.068 45.3264 176.048 44.6305C177.022 43.9347 177.919 43.172 178.726 42.337C179.534 41.5019 180.146 40.6947 180.564 39.9098C180.709 39.7093 180.837 39.431 180.943 39.0636C181.054 38.6962 181.099 38.4011 181.082 38.1784C181.015 37.2822 180.659 36.6976 180.024 36.4248C179.389 36.1521 178.676 36.0463 177.891 36.1075C176.393 36.2189 174.761 36.809 172.996 37.8611C171.231 38.9188 169.593 40.1992 168.084 41.7079C166.575 43.2165 165.328 44.8365 164.348 46.5678C163.367 48.2992 162.933 49.8913 163.044 51.3554C163.15 52.7806 163.713 53.7771 164.732 54.3616C165.745 54.9406 166.948 55.1799 168.324 55.0742L168.329 55.102ZM200.089 27.7014C200.941 26.3765 201.648 25.2965 202.222 24.4614C201.487 25.7585 200.712 27.0445 199.894 28.3082C199.081 29.5775 198.245 30.8412 197.388 32.1104C198.335 30.496 199.237 29.0263 200.089 27.7014ZM185.654 42.0141C186.439 41.3739 187.108 41.0287 187.659 40.9897C187.937 40.9675 188.199 41.0064 188.439 41.1011C187.726 42.6988 187.147 44.174 186.69 45.5268C186.289 45.9722 185.894 46.4064 185.509 46.8295C185.125 47.2526 184.707 47.6534 184.262 48.0264C183.855 48.3994 183.443 48.7501 183.031 49.0785C182.619 49.4126 182.213 49.7633 181.8 50.1307C181.606 50.1474 181.433 50.0194 181.294 49.7466C181.154 49.4738 181.076 49.2456 181.065 49.0563C181.026 48.533 181.238 47.8315 181.706 46.9464C182.174 46.0668 182.753 45.1817 183.438 44.3021C184.123 43.4225 184.858 42.6598 185.643 42.0196L185.654 42.0141ZM172.64 41.7858C173.18 41.3293 173.726 41.0844 174.277 41.0399C174.633 41.012 174.912 41.0844 175.123 41.257L175.263 41.5297C175.268 41.6077 175.246 41.6912 175.196 41.7914C175.146 41.8916 175.101 41.9807 175.068 42.053H175.129C174.605 42.504 174.121 42.8602 173.664 43.1219C173.208 43.3835 172.606 43.5394 171.854 43.5951C171.537 43.6174 171.297 43.584 171.13 43.4782C171.593 42.8046 172.099 42.2367 172.64 41.7803V41.7858Z" fill="white"/>
<path d="M217.802 55.2413C218.264 56.4103 218.915 57.3957 219.751 58.1973C220.586 58.999 221.6 59.6113 222.802 60.0289C224 60.4464 225.392 60.5967 226.968 60.4742C228.661 60.3462 230.343 60.001 232.002 59.4443C233.662 58.8821 235.238 58.2085 236.725 57.418C239.743 55.8703 242.695 53.933 245.59 51.606C248.486 49.2791 251.198 46.7294 253.721 43.957C256.249 41.1847 258.533 38.2732 260.582 35.2225C262.631 32.1718 264.313 29.1434 265.633 26.1428C265.973 25.4024 266.296 24.5952 266.607 23.7267C266.919 22.8583 267.187 21.9675 267.415 21.0657C267.643 20.1639 267.821 19.2676 267.955 18.3713C268.083 17.475 268.122 16.6344 268.061 15.8495C268.044 15.6268 268 15.3206 267.933 14.9309C267.86 14.5412 267.755 14.146 267.604 13.7396C267.454 13.3388 267.259 12.9936 267.02 12.7097C266.78 12.4258 266.502 12.2977 266.184 12.32C265.989 12.3367 265.661 12.4536 265.199 12.6763C265.672 12.153 266.173 11.5573 266.697 10.8949C267.22 10.2324 267.693 9.54209 268.117 8.81282C268.54 8.08354 268.88 7.34314 269.136 6.5916C269.397 5.84006 269.498 5.10522 269.442 4.39265C269.375 3.49637 269.147 2.7504 268.768 2.1603C268.384 1.5702 267.905 1.10814 267.326 0.774125C266.747 0.445674 266.073 0.222996 265.31 0.10609C264.547 -0.00524972 263.734 -0.0275176 262.865 0.039286C260.855 0.189594 258.733 0.701754 256.494 1.5702C254.261 2.43865 252.073 3.48523 249.923 4.7211C247.773 5.95697 245.746 7.2986 243.836 8.74045C241.921 10.1823 240.244 11.5462 238.791 12.821C236.741 14.5969 234.631 16.6678 232.453 19.0338C230.276 21.3997 228.199 23.9772 226.233 26.7607L223.95 26.4267C223.827 26.3988 223.627 26.3487 223.343 26.2764C223.059 26.204 222.769 26.1205 222.463 26.0314C222.157 25.9424 221.884 25.8589 221.639 25.7865C221.394 25.7085 221.254 25.6751 221.215 25.6751C220.981 25.6918 220.67 25.792 220.285 25.9702C219.901 26.1483 219.534 26.3766 219.177 26.6494C218.821 26.9221 218.526 27.2061 218.292 27.5067C218.058 27.8073 217.946 28.0856 217.969 28.3473C217.991 28.6479 218.164 28.8483 218.492 28.9597C218.815 29.0654 219.082 29.1489 219.283 29.2102C220.781 29.6221 222.329 29.9227 223.933 30.1009C222.836 31.8433 221.828 33.6136 220.915 35.4118C220.001 37.2099 219.227 39.0136 218.587 40.8117C217.952 42.6098 217.479 44.3968 217.178 46.1671C216.877 47.943 216.788 49.6687 216.916 51.3555C217.022 52.7751 217.312 54.0722 217.774 55.2413H217.802ZM239.955 16.0944C243.313 12.8099 246.972 10.0765 250.931 7.89427C252.112 7.27634 253.426 6.66954 254.868 6.06831C256.311 5.47264 257.719 5.11635 259.101 5.01058C260.164 4.92708 261.15 5.07182 262.047 5.43367C262.943 5.80109 263.439 6.56376 263.528 7.72169C263.589 8.50663 263.383 9.33054 262.915 10.1934C262.447 11.0563 261.818 11.908 261.027 12.7375C260.237 13.567 259.34 14.3909 258.332 15.2037C257.324 16.0165 256.299 16.7624 255.258 17.4416C254.222 18.1208 253.214 18.7331 252.245 19.2787C251.276 19.8243 250.469 20.2696 249.823 20.6203C246.916 22.0455 243.892 23.3203 240.745 24.4448C237.599 25.5694 234.352 26.2931 231.005 26.6271C233.617 22.8917 236.602 19.3789 239.96 16.0944H239.955ZM223.426 43.2055C223.688 41.6635 224.089 40.1437 224.629 38.6517C225.169 37.1598 225.804 35.7012 226.528 34.2705C227.252 32.8398 228.015 31.4369 228.822 30.0563C231.54 29.8114 234.441 29.2603 237.532 28.4085C240.617 27.5512 243.691 26.4545 246.738 25.1129C249.789 23.7712 252.724 22.2236 255.548 20.4645C258.365 18.7053 260.855 16.8459 263.004 14.8752L263.016 14.9866C263.027 15.1759 263.194 15.482 263.506 15.9107C263.817 16.3393 263.996 16.9072 264.051 17.6197C264.135 18.7053 264.04 19.8243 263.773 20.9711C263.506 22.1234 263.171 23.2201 262.776 24.2667C262.058 26.3153 261.133 28.3529 259.997 30.3792C258.861 32.4056 257.608 34.3819 256.227 36.3136C254.846 38.2453 253.381 40.0936 251.833 41.8694C250.279 43.6453 248.709 45.2875 247.122 46.8018C246.125 47.7426 244.995 48.7057 243.742 49.6854C242.489 50.6652 241.146 51.5782 239.726 52.4188C238.306 53.2594 236.853 53.972 235.371 54.5565C233.89 55.1411 232.437 55.4862 231.017 55.592C229.752 55.6866 228.661 55.5363 227.742 55.1355C226.823 54.7347 226.032 54.1724 225.386 53.4543C224.735 52.7306 224.234 51.8844 223.883 50.9157C223.532 49.9471 223.315 48.9339 223.237 47.8873C223.12 46.3174 223.187 44.7587 223.448 43.2111L223.426 43.2055Z" fill="white"/>
<path d="M267.969 34.9111C267.318 35.6961 266.633 36.5367 265.931 37.4386C265.224 38.3404 264.606 39.1699 264.071 39.9214C263.531 40.6785 263.269 41.1517 263.286 41.3354C263.314 41.7084 263.548 41.881 263.976 41.8476C264.645 41.7975 265.268 41.5136 265.848 41.0014C266.421 40.4892 266.934 40.0049 267.373 39.5596C267.273 39.7934 267.062 40.2721 266.739 40.9903C266.416 41.714 266.076 42.4711 265.72 43.2672C265.363 44.0632 265.051 44.7981 264.784 45.455C264.517 46.1174 264.383 46.4849 264.394 46.5572C264.422 46.9302 264.65 47.1028 265.085 47.0694C265.519 47.036 265.965 46.8801 266.416 46.6018C266.872 46.3234 267.245 46.0228 267.535 45.6999L268.031 45.21C268.437 44.8036 268.81 44.3973 269.156 43.9964C269.501 43.5956 269.857 43.1892 270.225 42.7828C271.366 41.6416 272.514 40.5115 273.655 39.387C274.797 38.2625 275.983 37.1658 277.214 36.0969V36.1526L277.052 36.3363L276.696 37.1546L275.543 39.22C275.331 39.6152 275.047 40.1163 274.674 40.7231C274.307 41.3354 273.945 41.9812 273.6 42.6659C273.254 43.3507 272.959 44.0131 272.708 44.6533C272.458 45.2935 272.352 45.8168 272.385 46.2288C272.475 47.4257 273.171 47.9768 274.474 47.8766C275.421 47.8042 276.395 47.4646 277.397 46.8634C278.4 46.2622 279.38 45.5385 280.327 44.6923C280.627 44.4251 280.911 44.1523 281.201 43.8795C281.201 43.9463 281.201 44.0243 281.201 44.0911C281.318 45.6275 282.181 46.329 283.802 46.2065C284.709 46.1397 285.606 45.8502 286.503 45.3492C287.394 44.8482 288.251 44.2469 289.07 43.5455C289.348 43.3061 289.61 43.0556 289.877 42.8051C289.989 42.9498 290.111 43.089 290.267 43.2004C290.752 43.5566 291.325 43.7125 291.999 43.6624C292.589 43.6179 293.196 43.4843 293.815 43.2727C294.433 43.0556 295.029 42.8329 295.608 42.5991C294.316 44.9205 293.085 47.242 291.916 49.569C290.746 51.896 289.66 54.2842 288.652 56.7336C288.619 56.8116 288.563 56.9563 288.48 57.1734C288.396 57.385 288.307 57.6077 288.201 57.8415C288.101 58.0753 288.017 58.298 287.956 58.5095C287.895 58.721 287.861 58.8435 287.867 58.8825C287.895 59.2555 288.129 59.4281 288.558 59.3946C289.031 59.3612 289.521 59.172 290.033 58.8324C290.54 58.4928 290.941 58.1421 291.231 57.7802C291.554 57.3404 291.827 56.8895 292.049 56.4219C292.272 55.9543 292.523 55.4811 292.807 55.0079C293.263 54.2229 293.698 53.4324 294.115 52.6475C294.533 51.8625 294.984 51.0776 295.48 50.2871C296.777 48.0436 298.019 45.7667 299.211 43.4509C300.408 41.1406 301.711 38.8971 303.131 36.7148C303.722 36.108 304.345 35.4456 305.003 34.7386C305.66 34.0316 306.261 33.3357 306.807 32.651C307.347 31.9718 307.798 31.3316 308.149 30.7415C308.5 30.1514 308.661 29.6838 308.639 29.3498C308.583 28.6372 308.221 28.3087 307.553 28.3588C306.684 28.4256 305.855 28.7263 305.064 29.2551C304.273 29.784 303.527 30.4186 302.831 31.1479C302.135 31.8772 301.511 32.6621 300.96 33.4916C300.408 34.3266 299.918 35.0559 299.489 35.6905C298.793 36.4198 298.103 37.1157 297.418 37.767C296.733 38.4239 296.12 38.847 295.58 39.0363C295.212 38.8748 295.012 38.6076 294.984 38.2346C294.94 37.6724 295.224 36.9264 295.825 35.9967C296.426 35.067 297.1 34.1318 297.841 33.191C298.582 32.2501 299.261 31.3984 299.879 30.6357C300.497 29.873 300.792 29.3776 300.776 29.1549C300.748 28.7819 300.514 28.6094 300.085 28.6428C299.294 28.704 298.587 29.0491 297.963 29.6782C297.334 30.3128 296.766 30.9085 296.254 31.4708C295.736 31.9996 295.09 32.7011 294.305 33.5695C293.514 34.438 292.757 35.3509 292.016 36.314C291.275 37.2771 290.651 38.2235 290.15 39.1643C290.106 39.2534 290.072 39.3369 290.028 39.4204C290.028 39.4204 290.028 39.4204 290.022 39.426C289.359 40.133 288.747 40.7732 288.173 41.3466C287.6 41.92 287.176 42.215 286.904 42.2317C286.748 42.2428 286.62 42.1426 286.525 41.92C286.43 41.7028 286.38 41.5581 286.375 41.4802C286.297 40.467 286.569 39.1142 287.193 37.4107C287.377 37.2103 287.55 37.0099 287.711 36.8095C287.873 36.6091 288.051 36.4254 288.235 36.2639C288.892 35.5346 289.816 34.527 291.008 33.2299C292.2 31.9328 293.475 30.4743 294.839 28.8432C296.204 27.212 297.59 25.5086 298.999 23.7271C300.414 21.9457 301.678 20.2199 302.803 18.5554C303.928 16.8909 304.83 15.3433 305.515 13.9181C306.2 12.493 306.506 11.3295 306.439 10.4332C306.4 9.90993 306.2 9.49241 305.838 9.18066C305.476 8.86891 305.003 8.7353 304.407 8.77983C303.738 8.82994 303.076 9.00251 302.424 9.29756C301.773 9.59261 301.138 9.94333 300.514 10.3442C299.89 10.7505 299.3 11.2015 298.743 11.6914C298.186 12.1868 297.685 12.6377 297.239 13.0497C296.354 13.946 295.329 15.1596 294.154 16.7016C292.979 18.2381 291.788 19.9583 290.562 21.8566C289.337 23.755 288.151 25.7591 287.004 27.8578C285.857 29.9566 284.832 32.0108 283.935 34.0204C283.039 36.0301 282.337 37.9062 281.836 39.6542C281.808 39.7488 281.791 39.8323 281.769 39.927C281.669 40.0272 281.563 40.1218 281.468 40.222C281.023 40.6674 280.639 41.0404 280.304 41.3243L278.405 42.9387C278.578 42.0981 278.973 41.1851 279.592 40.1942C280.21 39.2088 280.856 38.1957 281.535 37.1658C282.209 36.1359 282.799 35.1227 283.295 34.1262C283.796 33.1297 284.013 32.2167 283.952 31.3928C283.88 30.4186 283.289 29.9733 282.187 30.0568C280.967 30.1514 279.748 30.5634 278.534 31.2926C277.32 32.0275 276.195 32.8625 275.159 33.8089C275.465 33.1464 275.71 32.573 275.888 32.0887C276.067 31.6044 276.15 31.2314 276.128 30.9697C276.072 30.2572 275.654 29.9343 274.864 29.9955C273.839 30.0735 272.82 30.491 271.806 31.2425C270.793 31.9996 269.957 32.7178 269.295 33.4081C269.072 33.614 268.632 34.1095 267.98 34.8889L267.969 34.9111ZM293.731 24.4564C294.527 23.1537 295.296 21.9179 296.037 20.7544C296.783 19.5853 297.485 18.5387 298.147 17.6035C298.81 16.6682 299.378 15.9 299.846 15.2987C299.59 16.0726 299.099 17.069 298.376 18.2882C297.657 19.5074 296.866 20.7655 296.014 22.0515C295.162 23.3374 294.305 24.5622 293.441 25.7201C292.578 26.878 291.91 27.7743 291.448 28.4145C292.177 27.0784 292.94 25.7591 293.731 24.4564Z" fill="white"/>
<path d="M162.284 70.9507C161.888 70.9785 161.526 71.0453 161.198 71.1455C160.869 71.2457 160.53 71.3459 160.179 71.4461C159.321 71.6243 158.452 71.7857 157.567 71.9249C156.687 72.0696 155.791 72.1698 154.883 72.2422C149.676 72.6375 144.541 72.6319 139.474 72.2255C136.639 71.9917 133.832 71.7133 131.053 71.396C128.275 71.0787 125.462 71.0286 122.628 71.2457C121.13 71.357 119.626 71.5129 118.111 71.7022C116.597 71.8915 115.104 72.1587 113.623 72.4983C113.083 72.6207 112.531 72.7544 111.98 72.8991C111.791 72.8434 111.601 72.7878 111.406 72.721C109.351 72.0307 107.336 71.0676 105.359 69.8261C103.382 68.5847 101.466 67.1429 99.617 65.495C97.7682 63.8472 96.0028 62.1493 94.321 60.3957C92.6392 58.6421 91.0743 56.9163 89.6153 55.224C88.1562 53.5316 86.842 51.9952 85.6669 50.6145L83.25 47.7531C86.1236 46.9682 89.0305 45.9494 91.9709 44.6913C94.9113 43.4332 97.7347 42.0136 100.452 40.4381C103.17 38.8571 105.665 37.1369 107.943 35.272C110.215 33.4071 112.114 31.4586 113.623 29.4267C113.979 28.9479 114.336 28.4135 114.692 27.8234C115.043 27.2333 115.366 26.6265 115.655 26.003C115.945 25.3795 116.168 24.7504 116.313 24.1214C116.463 23.4923 116.513 22.8744 116.469 22.2787C116.363 20.8591 115.967 19.6288 115.293 18.5878C114.62 17.5468 113.751 16.6839 112.687 15.9936C111.624 15.3033 110.432 14.7633 109.112 14.3736C107.792 13.9839 106.433 13.7056 105.036 13.5275C103.632 13.3493 102.24 13.2602 100.853 13.2547C99.4667 13.2491 98.197 13.2881 97.0553 13.3716C95.2399 13.5108 93.2685 13.7724 91.1356 14.1565C89.0027 14.5462 86.8308 15.0472 84.62 15.6652C82.4036 16.2831 80.1927 17.0124 77.9763 17.8586C75.7599 18.7047 73.6604 19.6511 71.6779 20.7033C69.6953 21.7554 67.8799 22.9078 66.2315 24.1604C64.5831 25.4129 63.1964 26.7546 62.0771 28.1908C61.3921 29.1094 60.8352 30.0892 60.4008 31.1358C59.9665 32.1823 59.7883 33.2679 59.8718 34.3869C59.9553 35.5058 60.3507 36.48 61.0468 37.3095C61.7429 38.139 62.6674 38.7736 63.809 39.2134C63.9705 39.2747 64.1821 39.3359 64.4494 39.3916C64.7112 39.4472 64.9395 39.4639 65.14 39.4528C65.3739 39.4361 65.6746 39.3359 66.0366 39.1577C66.3985 38.9796 66.7605 38.7625 67.1169 38.512C67.4733 38.2615 67.7685 37.9831 68.0079 37.6825C68.2418 37.3819 68.3532 37.1035 68.3309 36.8419C68.3142 36.6192 68.2196 36.4522 68.0581 36.352C67.891 36.2518 67.6738 36.1572 67.4121 36.0625C67.1448 35.9679 66.8608 35.8677 66.5545 35.7619C66.2482 35.6561 65.9697 35.4947 65.7136 35.2887C65.3293 34.9436 64.9896 34.4759 64.6889 33.897C64.3882 33.318 64.2155 32.7836 64.1821 32.2992C64.054 30.6514 64.5497 29.165 65.6579 27.8401C66.7661 26.5152 68.2307 25.3294 70.0573 24.2884C71.8839 23.2474 73.9555 22.3567 76.2778 21.6162C78.6 20.8758 80.9055 20.2468 83.1832 19.7346C85.4664 19.2225 87.6161 18.8272 89.6376 18.5377C91.6591 18.2538 93.2963 18.0645 94.5605 17.9643C92.7561 19.267 90.9964 20.8814 89.2812 22.7964C87.5604 24.717 85.912 26.749 84.3304 28.9034C82.7488 31.0578 81.2786 33.2178 79.9143 35.3945C78.5499 37.5656 77.3247 39.5808 76.2388 41.4346C75.4202 41.1229 74.6015 40.9948 73.7718 41.0561C73.1815 41.1006 72.4909 41.2955 71.7057 41.635C70.9205 41.9746 70.191 42.42 69.5171 42.96C68.8433 43.5 68.2753 44.0901 67.8075 44.7247C67.3397 45.3649 67.1336 45.9995 67.1782 46.6342C67.2506 47.5694 67.7072 48.2319 68.5481 48.6216C69.389 49.0113 70.3135 49.2618 71.3103 49.3731C70.6031 50.5199 69.7343 51.8671 68.7041 53.4092C67.6738 54.9568 66.5155 56.5712 65.2346 58.2469C63.9538 59.9281 62.5671 61.6037 61.0691 63.2794C59.5711 64.955 58.0396 66.4748 56.4803 67.8332C54.921 69.1971 53.3283 70.3105 51.7078 71.19C50.0872 72.064 48.489 72.5651 46.913 72.682C45.8103 72.7655 44.7634 72.6764 43.7721 72.4148C42.7808 72.1531 41.8954 71.7412 41.1213 71.1789C40.3472 70.6166 39.7179 69.9096 39.2334 69.0635C38.7545 68.2173 38.4705 67.2486 38.387 66.1631C38.2867 64.8548 38.3647 63.5689 38.6264 62.3052C38.8882 61.0415 39.278 59.8279 39.807 58.6588C40.3305 57.4897 40.9709 56.3597 41.7227 55.2685C42.4745 54.1774 43.2653 53.1308 44.1007 52.1232C44.7912 51.316 45.66 50.4364 46.6958 49.4678C47.7316 48.5047 48.8454 47.6028 50.026 46.7566C51.2122 45.916 52.415 45.1923 53.6402 44.5911C54.8653 43.9899 56.046 43.6447 57.1876 43.5612C57.9338 43.5055 58.5074 43.5946 58.9028 43.8284C59.2982 44.0622 59.6045 44.3294 59.8272 44.6356C60.05 44.9362 60.2282 45.2202 60.3674 45.4707C60.5066 45.7268 60.7127 45.8381 60.9856 45.8214C61.225 45.8047 61.5202 45.7045 61.8877 45.5263C62.2497 45.3482 62.6117 45.1255 62.9681 44.8527C63.3245 44.58 63.6197 44.296 63.8536 43.9954C64.0874 43.6948 64.1988 43.4165 64.1765 43.1548C64.132 42.5926 63.9705 42.1194 63.6809 41.7241C63.3913 41.3344 63.0294 41.0115 62.595 40.761C62.1606 40.5105 61.6705 40.3435 61.1304 40.2544C60.5902 40.1654 60.0611 40.1375 59.5488 40.1765C58.6021 40.2489 57.6442 40.4326 56.6752 40.7332C55.7062 41.0338 54.754 41.3957 53.8128 41.8243C52.8717 42.253 51.9695 42.7262 51.0952 43.2439C50.2209 43.7616 49.4078 44.2738 48.656 44.7859C46.7682 46.0608 44.8302 47.6362 42.831 49.5179C40.8317 51.3995 39.0218 53.4426 37.4068 55.6304C35.7919 57.8238 34.4832 60.1174 33.4975 62.5056C32.5118 64.8938 32.1053 67.2486 32.2779 69.5701C32.3781 70.9173 32.69 72.1253 33.2079 73.1997C33.7258 74.2686 34.4163 75.1704 35.2851 75.8941C36.1538 76.6178 37.1785 77.1634 38.3536 77.5252C38.5763 77.592 38.8046 77.6422 39.033 77.6978C37.9637 77.7312 36.8945 77.7813 35.8197 77.8648C33.1411 78.0708 30.3622 78.4605 27.4942 79.0339C24.6262 79.6129 21.8306 80.4145 19.113 81.4499C16.3954 82.4854 13.8448 83.7714 11.4669 85.3079C9.08342 86.8443 7.06191 88.6703 5.39681 90.7913C5.10723 91.1532 4.81208 91.5595 4.50579 92.016C4.20507 92.4725 3.93219 92.9457 3.69273 93.43C3.45327 93.9199 3.25278 94.4154 3.09129 94.9164C2.92979 95.4174 2.86853 95.8906 2.90194 96.3416C2.91865 96.5308 2.95206 96.7535 3.01332 97.0096C3.06901 97.2712 3.15254 97.5273 3.25278 97.7834C3.34746 98.0395 3.49782 98.2566 3.68716 98.4292C3.88207 98.6018 4.09369 98.6797 4.32758 98.663C4.56705 98.6463 4.87333 98.5461 5.25759 98.3679C5.64184 98.1898 6.00939 97.9615 6.3658 97.6888C6.72221 97.416 7.01736 97.1321 7.25126 96.8315C7.48515 96.5308 7.59096 96.2525 7.57425 95.9908C7.55198 95.7292 7.44617 95.5121 7.25682 95.3395C7.06748 95.1669 6.9561 94.9276 6.93383 94.6269C6.85029 93.5414 7.16215 92.5282 7.86383 91.5929C8.56551 90.6577 9.2839 89.8394 10.0301 89.1435C11.2553 88.0357 12.7311 87.0837 14.4518 86.2932C16.1782 85.5027 17.977 84.8402 19.8592 84.3002C21.7415 83.7602 23.635 83.3483 25.534 83.0477C27.4329 82.7526 29.2094 82.5411 30.869 82.4186C33.826 82.1959 36.7776 82.1848 39.7291 82.3963C42.6806 82.6079 45.6321 82.825 48.5836 83.0477C49.8645 83.1757 51.1286 83.2759 52.3816 83.3538C53.6346 83.4262 54.8988 83.5097 56.174 83.6044C53.8518 85.4359 51.6966 87.4289 49.6974 89.5721C47.6982 91.721 45.7992 93.9645 43.9949 96.3026C42.1905 98.6407 40.4809 101.029 38.8603 103.467C37.2398 105.906 35.6693 108.311 34.1435 110.688L33.982 110.927C32.1999 110.988 30.3956 111.038 28.5523 111.083C26.709 111.127 24.9047 111.216 23.1282 111.356C21.6691 111.467 20.0876 111.634 18.3779 111.857C16.6683 112.079 14.9809 112.413 13.3102 112.864C11.6395 113.31 10.0635 113.894 8.59336 114.607C7.1176 115.319 5.89244 116.243 4.90675 117.374C4.71741 117.541 4.48351 117.841 4.1995 118.275C3.91548 118.71 3.78183 119.044 3.79854 119.266C3.82638 119.639 4.06028 119.812 4.48908 119.778C5.15735 119.728 5.73651 119.478 6.21544 119.027C6.69436 118.576 7.13988 118.131 7.54084 117.685L7.6021 117.735C8.49312 117.479 9.42312 117.279 10.381 117.129C11.3388 116.978 12.2744 116.873 13.1821 116.806C16.1392 116.583 19.074 116.444 21.981 116.394C24.8935 116.344 27.8228 116.204 30.7854 115.976C28.8363 119.06 26.7814 122.105 24.6095 125.112C22.4376 128.118 19.9539 130.801 17.1639 133.161C15.4097 134.609 13.5998 135.7 11.7342 136.424C9.86307 137.147 7.80814 137.598 5.56388 137.771C5.1295 137.804 4.72297 137.804 4.34429 137.776C3.9656 137.749 3.57578 137.749 3.18596 137.776C2.95206 137.793 2.64021 137.893 2.25595 138.072C1.8717 138.25 1.51529 138.467 1.17559 138.717C0.835882 138.968 0.551868 139.246 0.317975 139.547C0.0840808 139.847 -0.0272972 140.126 -0.00502157 140.393C0.017254 140.655 0.0840808 140.799 0.206597 140.827C0.368095 140.888 0.618695 140.938 0.958398 140.966C1.2981 141 1.66565 141.016 2.06104 141.022C2.45643 141.028 2.83512 141.028 3.19153 141.022C3.54794 141.011 3.82081 141 4.02129 140.989C7.3682 140.733 10.4756 139.87 13.3381 138.389C16.2005 136.908 18.8903 135.01 21.413 132.694C23.9301 130.378 26.3303 127.739 28.6024 124.778C30.8745 121.822 33.0965 118.732 35.274 115.52C36.4935 115.353 37.7744 115.152 39.1221 114.919C40.4697 114.685 41.7673 114.406 43.0147 114.089C43.9614 113.844 44.8413 113.56 45.6488 113.243C45.0919 113.955 44.5852 114.679 44.1285 115.42C43.4213 116.566 42.8755 117.696 42.4857 118.821C42.0959 119.945 41.9344 120.953 42.0012 121.849C42.0624 122.673 42.3075 123.386 42.7307 123.998C43.154 124.605 43.8779 124.872 44.9026 124.794C46.874 124.644 48.7173 123.948 50.4269 122.707C52.1366 121.465 53.6179 119.99 54.8765 118.275C55.5058 118.715 56.1518 118.91 56.8256 118.86C57.299 118.827 57.8614 118.66 58.513 118.364C59.1645 118.069 59.7883 117.713 60.3953 117.29C60.9967 116.867 61.509 116.427 61.9267 115.96C61.9434 115.943 61.9546 115.921 61.9713 115.904C62.0381 115.831 62.0993 115.765 62.1717 115.687C62.5727 115.241 63.0015 114.779 63.4637 114.289C63.9204 113.805 64.3492 113.321 64.7501 112.836C65.1511 112.352 65.4574 111.99 65.6746 111.751L65.4128 112.224C65.0509 112.703 64.6388 113.271 64.171 113.928C63.7032 114.584 63.2688 115.264 62.8679 115.976C62.4669 116.683 62.1328 117.396 61.871 118.114C61.6037 118.832 61.4979 119.489 61.5425 120.085C61.6594 121.621 62.5059 122.328 64.0819 122.206C65.0286 122.133 65.953 121.877 66.8496 121.432C67.7462 120.987 68.6094 120.441 69.428 119.795C70.2522 119.149 71.0207 118.459 71.7391 117.73C72.4575 117.001 73.1091 116.31 73.6938 115.664C73.8776 115.464 74.1337 115.163 74.4567 114.757C74.7853 114.356 74.9357 114.045 74.919 113.816C74.8911 113.443 74.6572 113.271 74.2284 113.304C73.794 113.337 73.3485 113.505 72.8974 113.8C72.4464 114.095 71.9953 114.434 71.5442 114.807C71.0987 115.18 70.681 115.57 70.2968 115.976C69.9125 116.383 69.5505 116.711 69.2108 116.962C68.9101 117.212 68.5537 117.446 68.136 117.663L67.6014 117.702C67.4733 117.596 67.4009 117.418 67.3842 117.156C67.3341 116.483 67.607 115.681 68.214 114.752C68.8154 113.822 69.4893 112.859 70.2244 111.862C70.9595 110.866 71.6277 109.892 72.2347 108.945C72.8362 107.999 73.1091 107.164 73.0534 106.457C72.9921 105.672 72.6747 105.232 72.09 105.148C71.5108 105.059 70.9038 105.043 70.2745 105.087C70.5028 104.469 70.6086 104.007 70.5863 103.707C70.5529 103.295 70.4137 102.977 70.1575 102.749C69.9014 102.526 69.5561 102.426 69.1217 102.46C68.4145 102.515 67.6794 102.76 66.9165 103.194C66.1535 103.629 65.463 104.152 64.8337 104.764C64.2044 105.377 63.7032 106.045 63.3189 106.768C62.9347 107.492 62.7732 108.194 62.8233 108.867C62.8623 109.391 63.0126 109.758 63.2632 109.964C62.84 110.671 62.3499 111.406 61.7931 112.163C61.2362 112.92 60.7238 113.627 60.2616 114.284C60.0277 114.618 59.8105 114.93 59.6101 115.219C59.2314 115.113 58.9139 114.88 58.6689 114.49C58.396 114.061 58.1621 113.571 57.9617 113.02C57.9951 112.942 58.0396 112.864 58.0953 112.786C58.151 112.708 58.19 112.63 58.2234 112.553C58.4183 112.013 58.6466 111.333 58.9028 110.526C59.159 109.713 59.2648 109.029 59.2202 108.466C59.1868 108.054 59.0754 107.726 58.8805 107.475C58.68 107.231 58.3459 107.103 57.8726 107.103C57.6498 106.78 57.3713 106.518 57.0372 106.318C56.7031 106.117 56.3021 106.034 55.8288 106.073C54.8431 106.145 53.8128 106.462 52.7492 107.013C51.6799 107.565 50.6218 108.277 49.5805 109.146C49.341 109.346 49.1071 109.552 48.8732 109.758C48.7841 109.736 48.6783 109.719 48.5558 109.73C48.1214 109.764 47.7204 109.853 47.3585 109.992C46.9909 110.131 46.59 110.22 46.1612 110.253C45.6098 110.298 45.0697 110.376 44.5406 110.487C44.0171 110.604 43.4769 110.682 42.9256 110.721C42.1348 110.782 41.3663 110.832 40.6145 110.866C39.8627 110.905 39.0942 110.933 38.3034 110.955C40.0799 108.26 41.862 105.583 43.6384 102.927C45.4205 100.272 47.2527 97.7611 49.135 95.3952C51.0172 93.0292 52.9719 90.8525 54.999 88.854C57.0261 86.8555 59.159 85.152 61.3921 83.738C62.3054 83.7435 63.2354 83.7324 64.1821 83.6934C65.1288 83.66 66.0811 83.6044 67.0278 83.532C68.1305 83.4485 69.3389 83.3093 70.6532 83.1145C71.9674 82.9196 73.265 82.6357 74.5458 82.2572C75.8267 81.8786 77.0296 81.3887 78.1545 80.7986C79.2794 80.2029 80.2261 79.4848 80.9946 78.6331C81.2174 78.3881 81.468 78.0597 81.752 77.6422C82.036 77.2246 82.1641 76.8294 82.1363 76.4564C82.0973 75.9721 81.8634 75.6046 81.429 75.3541C80.9946 75.1036 80.4934 74.9366 79.931 74.8475C79.3685 74.7585 78.7893 74.7195 78.199 74.7251C77.6032 74.7306 77.1298 74.7473 76.7734 74.7752C74.4066 74.9533 72.1512 75.3875 70.0016 76.0778C67.852 76.7681 65.747 77.6422 63.6865 78.7054C61.8989 78.6553 60.1502 78.5997 58.4406 78.5384C56.7309 78.4828 54.9823 78.3881 53.1835 78.2601C50.3156 78.0652 47.4364 77.8982 44.5517 77.759C44.329 77.7479 44.1007 77.7479 43.8723 77.7368C45.6321 77.4584 47.3752 76.9463 49.1015 76.1947C51.3681 75.215 53.5511 73.9735 55.6561 72.476C57.7612 70.9785 59.7771 69.2861 61.6928 67.3878C63.6085 65.4895 65.4128 63.5299 67.1058 61.498C68.7987 59.4716 70.3469 57.4508 71.7614 55.4411C73.1759 53.4314 74.4289 51.5609 75.526 49.8185C76.4337 50.8038 77.3191 51.7836 78.1879 52.7523C79.0566 53.7209 79.7695 54.5448 80.3375 55.2129C81.635 56.6603 83.0718 58.2135 84.6478 59.8835C86.2238 61.5536 87.8834 63.2237 89.6376 64.8938C91.3918 66.5695 93.2351 68.1672 95.1786 69.6981C97.1166 71.2234 99.1214 72.5706 101.193 73.7286C102.29 74.3409 103.398 74.8754 104.523 75.3319C102.908 75.9609 101.327 76.6568 99.7785 77.425C97.5454 78.5384 95.4292 79.791 93.4355 81.1827C91.4363 82.5745 89.671 84.1054 88.1339 85.7643C87.8388 86.0872 87.5047 86.4825 87.1204 86.9445C86.7362 87.4066 86.3909 87.8965 86.0735 88.4086C85.756 88.9208 85.4999 89.4385 85.2994 89.9618C85.1045 90.4851 85.0209 90.9695 85.0544 91.4204C85.0933 91.9437 85.2548 92.3668 85.5388 92.6841C85.8229 93.0014 86.1737 93.2463 86.5858 93.4245C86.9979 93.6026 87.449 93.7084 87.9335 93.7474C88.418 93.7863 88.8969 93.7863 89.3758 93.7474C91.0019 93.6249 92.7561 93.1406 94.6384 92.2999C96.5151 91.4593 98.3529 90.4573 100.152 89.2827C101.945 88.1136 103.643 86.8555 105.247 85.5083C106.851 84.1611 108.182 82.9252 109.246 81.7895C109.357 81.6671 109.53 81.4834 109.769 81.244C110.009 80.999 110.242 80.7374 110.482 80.4535C110.716 80.1751 110.922 79.9023 111.106 79.6463C111.284 79.3902 111.367 79.1842 111.356 79.0339C111.328 78.6609 111.095 78.4883 110.666 78.5217C110.309 78.5496 109.981 78.6386 109.674 78.7945C109.368 78.9504 109.067 79.1341 108.767 79.3456C108.466 79.5962 108.193 79.8801 107.937 80.1974C107.681 80.5203 107.408 80.8209 107.113 81.1048C106.372 81.8396 105.437 82.6636 104.295 83.5765C103.153 84.4895 101.928 85.3468 100.625 86.1429C99.3163 86.939 98.002 87.6348 96.6767 88.2194C95.3512 88.8095 94.1595 89.1435 93.0958 89.227C92.7394 89.2548 92.2884 89.1936 91.7426 89.0489C91.1969 88.9041 90.9073 88.6035 90.8738 88.1526C90.8516 87.8909 90.9518 87.6014 91.1634 87.2841C91.3751 86.9668 91.5755 86.7052 91.7593 86.5047C93.1515 85.0072 94.9336 83.6656 97.1054 82.4854C99.2773 81.3052 101.6 80.292 104.072 79.4458C106.545 78.5997 109.034 77.9316 111.534 77.4362C112.225 77.3026 112.899 77.1801 113.562 77.0688C113.751 77.0576 113.935 77.052 114.124 77.0409C114.831 76.9852 115.644 76.8572 116.563 76.6568C116.597 76.6512 116.624 76.6401 116.658 76.6345C117.259 76.5677 117.85 76.5065 118.418 76.462C120.623 76.2949 122.806 76.2615 124.95 76.3617C127.1 76.4619 129.266 76.5789 131.46 76.7125L132.412 76.7514C132.301 76.8349 132.201 76.9463 132.112 77.0855C132.022 77.2246 131.922 77.336 131.811 77.4195C127.395 82.4631 123.04 87.5068 118.746 92.556C114.453 97.6053 110.348 102.86 106.444 108.311C105.292 109.864 104.016 111.712 102.613 113.855C101.21 115.993 99.8899 118.214 98.6592 120.508C97.4285 122.801 96.4205 125.1 95.6464 127.4C94.8668 129.699 94.5549 131.803 94.6997 133.713C94.7164 133.935 94.7665 134.197 94.8501 134.492C94.9336 134.787 95.1508 134.921 95.5072 134.893C95.7801 134.87 96.1086 134.77 96.4929 134.592C96.8771 134.414 97.2335 134.186 97.5732 133.919C97.9074 133.646 98.1858 133.345 98.3974 133.011C98.6091 132.677 98.7037 132.36 98.6814 132.059C98.6035 131.013 98.7761 129.793 99.2049 128.407C99.6337 127.021 100.23 125.563 100.981 124.037C101.739 122.512 102.602 120.942 103.565 119.322C104.534 117.708 105.509 116.166 106.483 114.696C107.464 113.232 108.421 111.857 109.351 110.582C110.287 109.307 111.078 108.227 111.724 107.353C114.603 103.523 117.493 99.7708 120.389 96.1077C123.285 92.4447 126.192 88.7315 129.121 84.9683L135.464 76.8628C137.057 76.9296 138.622 76.9518 140.17 76.9296C141.712 76.9073 143.255 76.8349 144.792 76.718C145.778 76.6457 146.997 76.5343 148.456 76.384C149.91 76.2393 151.402 76.05 152.934 75.8162C154.465 75.5879 155.93 75.3152 157.333 75.0034C158.736 74.6917 159.839 74.3354 160.641 73.9346C161.293 73.6228 161.905 73.1218 162.49 72.437C162.557 72.3201 162.657 72.1698 162.779 71.9917C162.908 71.8135 162.963 71.6465 162.952 71.4962C162.924 71.1232 162.69 70.9507 162.262 70.9841L162.284 70.9507ZM51.318 111.166C51.5296 110.849 51.8025 110.521 52.1366 110.175C52.4707 109.83 52.8327 109.641 53.2225 109.613C52.3482 110.66 51.9639 111.834 52.0642 113.143C52.0976 113.594 52.1978 114.095 52.3538 114.646C51.9862 115.542 51.524 116.405 50.9727 117.234C50.4214 118.069 49.8366 118.827 49.2129 119.517H49.1517C48.9178 119.539 48.7117 119.355 48.5446 118.977C48.3776 118.593 48.2885 118.309 48.2718 118.12C48.1771 116.884 48.4611 115.648 49.1182 114.412C49.7754 113.176 50.5105 112.096 51.3124 111.166H51.318ZM79.8808 44.0901L79.2404 43.5167C80.7774 40.8 82.2977 38.1167 83.8013 35.4613C85.3049 32.8058 86.9478 30.2061 88.741 27.662C89.5652 26.543 90.4061 25.4463 91.2581 24.3663C92.1101 23.2863 93.0123 22.2564 93.9702 21.2822C94.4825 20.7534 94.9948 20.2802 95.496 19.8682C95.9972 19.4563 96.4873 18.9831 96.9662 18.4598L97.1667 17.9922C98.2805 18.02 99.4165 18.1258 100.58 18.2983C101.744 18.4765 102.853 18.7493 103.916 19.1167C104.974 19.4897 105.954 19.9573 106.851 20.5307C107.748 21.1041 108.488 21.8167 109.067 22.6795C109.335 23.0748 109.58 23.5146 109.791 24.01C110.009 24.4999 110.131 24.9731 110.165 25.4185C110.276 26.8436 109.814 28.2409 108.789 29.616C107.764 30.991 106.5 32.2714 105.008 33.4627C103.51 34.6485 101.939 35.7174 100.285 36.6749C98.6313 37.6268 97.2335 38.3728 96.0863 38.9128C93.5246 40.1598 90.8906 41.2454 88.1841 42.1695C85.4776 43.088 82.7154 43.7338 79.8864 44.0956L79.8808 44.0901Z" fill="white"/>
<path d="M152.733 107.304C152.104 107.354 151.48 107.632 150.867 108.15C150.255 108.668 149.592 109.247 148.885 109.881C148.183 110.516 147.403 111.106 146.551 111.64C145.699 112.175 144.741 112.481 143.678 112.564C143.01 112.615 142.375 112.409 141.784 111.947C141.194 111.484 140.877 110.933 140.827 110.299C140.804 109.998 140.838 109.675 140.932 109.33C141.094 109.358 141.272 109.358 141.467 109.347C142.414 109.274 143.422 109.013 144.502 108.551C145.577 108.094 146.601 107.515 147.582 106.819C148.562 106.123 149.453 105.361 150.26 104.526C151.068 103.691 151.68 102.883 152.098 102.099C152.243 101.898 152.371 101.62 152.477 101.252C152.588 100.885 152.633 100.59 152.616 100.367C152.549 99.4709 152.193 98.8864 151.558 98.6136C150.923 98.3409 150.21 98.2351 149.419 98.2963C147.921 98.4077 146.29 98.9978 144.53 100.05C142.764 101.108 141.127 102.388 139.618 103.897C138.109 105.405 136.861 107.025 135.881 108.757C135.358 109.681 134.996 110.566 134.784 111.412C134.383 111.78 133.982 112.147 133.581 112.52C132.93 113.116 132.323 113.544 131.749 113.817L131.688 113.767C131.721 113.689 131.777 113.628 131.855 113.583C131.933 113.539 132.005 113.516 132.089 113.511C132 113.366 131.95 113.238 131.939 113.127C131.905 112.676 132.172 112.008 132.735 111.117C133.303 110.226 133.932 109.274 134.628 108.261C135.324 107.248 135.954 106.24 136.511 105.238C137.067 104.236 137.318 103.379 137.268 102.666C137.218 102.032 136.99 101.575 136.572 101.308C136.154 101.041 135.631 100.929 135.001 100.974C133.62 101.08 132.2 101.659 130.73 102.711C132.117 101.102 133.481 99.4932 134.823 97.8844C136.165 96.2755 137.491 94.6333 138.788 92.952C139.434 92.0725 140.064 91.2263 140.676 90.4079C141.289 89.5896 141.879 88.7267 142.441 87.8193C142.687 87.424 142.959 86.962 143.26 86.4276C143.555 85.8987 143.834 85.3587 144.09 84.8131C144.346 84.2676 144.563 83.7053 144.736 83.1264C144.909 82.5474 144.981 82.0185 144.942 81.5286C144.903 81.0053 144.708 80.5767 144.368 80.2427C144.029 79.9142 143.578 79.7639 143.026 79.8084C141.528 79.9198 139.974 80.6435 138.371 81.9684C136.767 83.2934 135.152 84.9802 133.52 87.0232C131.888 89.0663 130.318 91.3321 128.803 93.8205C127.289 96.3089 125.88 98.7584 124.571 101.169C123.268 103.585 122.132 105.834 121.157 107.922C120.188 110.009 119.453 111.674 118.952 112.915C118.885 113.11 118.74 113.477 118.501 114.023C118.267 114.569 118.022 115.153 117.771 115.771C117.521 116.389 117.309 116.951 117.125 117.458C116.947 117.959 116.858 118.248 116.864 118.326C116.891 118.699 117.125 118.872 117.554 118.838C118.105 118.794 118.662 118.577 119.23 118.176C119.793 117.775 120.216 117.358 120.506 116.923L120.662 116.628C121.179 116.172 121.642 115.688 122.037 115.17C122.432 114.652 122.856 114.168 123.296 113.717C124.465 112.425 125.657 111.156 126.871 109.915C128.085 108.673 129.405 107.51 130.83 106.424C130.819 106.764 130.552 107.331 130.04 108.122C129.527 108.913 128.959 109.792 128.335 110.766C127.717 111.735 127.155 112.72 126.659 113.717C126.158 114.713 125.941 115.587 125.997 116.339C126.047 116.973 126.292 117.447 126.732 117.753C127.172 118.059 127.723 118.187 128.397 118.131C129.304 118.065 130.24 117.764 131.215 117.241C132.184 116.717 133.119 116.083 134.016 115.337C134.283 115.114 134.539 114.88 134.801 114.652C135.063 115.498 135.553 116.133 136.277 116.55C137.296 117.129 138.493 117.369 139.869 117.269C140.971 117.185 142.107 116.879 143.277 116.361C144.446 115.838 145.577 115.209 146.674 114.468C147.765 113.728 148.796 112.926 149.765 112.058C150.734 111.189 151.558 110.36 152.254 109.553C152.438 109.352 152.683 109.068 152.995 108.707C153.301 108.345 153.451 108.05 153.434 107.827C153.407 107.454 153.173 107.281 152.744 107.315L152.733 107.304ZM144.179 103.941C144.719 103.485 145.265 103.24 145.816 103.195C146.173 103.167 146.457 103.24 146.668 103.412L146.807 103.685C146.813 103.763 146.791 103.847 146.741 103.947C146.691 104.047 146.646 104.136 146.613 104.208H146.674C146.15 104.659 145.666 105.016 145.209 105.277C144.753 105.539 144.151 105.695 143.399 105.75C143.082 105.773 142.842 105.739 142.675 105.634C143.138 104.96 143.639 104.392 144.185 103.936L144.179 103.941ZM134.4 92.2673C135.503 90.6418 136.639 89.0886 137.791 87.6078C137.179 88.9717 136.416 90.2799 135.503 91.538C134.584 92.7906 133.676 94.0209 132.779 95.2178L131.159 97.3722C132.211 95.5963 133.292 93.8984 134.4 92.2673Z" fill="white"/>
<path d="M253.53 77.6808C254.895 75.0198 256.014 72.7039 256.899 70.7332C257.779 68.7681 258.191 67.4098 258.136 66.6582C258.097 66.1349 257.913 65.8009 257.584 65.6562C257.256 65.5114 256.838 65.4613 256.326 65.5003C255.262 65.5838 254.059 66.0681 252.717 66.9588C251.375 67.8496 249.994 68.9796 248.574 70.3491C247.154 71.7186 245.712 73.2384 244.252 74.914C242.793 76.5897 241.423 78.2375 240.137 79.8575C238.851 81.4775 237.687 82.9973 236.645 84.4113C235.604 85.8253 234.774 86.9554 234.167 87.7904C234.546 87.0444 235.08 86.0201 235.777 84.7063C236.467 83.3925 237.225 81.9451 238.038 80.3585C238.851 78.7719 239.664 77.1185 240.488 75.3984C241.307 73.6782 242.036 72.0359 242.671 70.4605C243.306 68.8906 243.818 67.4766 244.225 66.2184C244.626 64.9659 244.798 63.9805 244.743 63.2735C244.648 62.0376 243.991 61.4642 242.766 61.5589C241.78 61.6313 240.777 61.9931 239.753 62.6333C238.728 63.2735 237.848 63.9081 237.102 64.5261C235.353 66.0125 233.783 67.6324 232.385 69.3749C230.993 71.1174 229.612 72.8877 228.242 74.6858C225.97 77.6474 223.742 80.6257 221.554 83.6375C219.365 86.6436 217.176 89.6665 214.993 92.6893C212.409 96.1965 209.837 99.6703 207.286 103.1C204.736 106.529 201.979 109.863 199.016 113.103C197.919 114.317 196.594 115.675 195.046 117.19C193.498 118.698 191.844 120.134 190.084 121.493C188.324 122.851 186.503 124.026 184.615 125.011C182.727 126.002 180.901 126.564 179.13 126.698C176.724 126.882 174.808 126.308 173.383 124.989C171.957 123.664 171.161 121.938 170.999 119.806C170.871 118.086 171.15 116.171 171.84 114.066C172.531 111.962 173.438 109.869 174.569 107.787C175.694 105.705 176.941 103.751 178.311 101.914C179.676 100.077 180.984 98.5458 182.237 97.321C183.123 96.4637 184.164 95.573 185.361 94.6545C186.559 93.7359 187.812 92.8953 189.12 92.1382C190.429 91.3811 191.771 90.7353 193.158 90.1953C194.539 89.6553 195.887 89.338 197.184 89.2378C197.891 89.1821 198.599 89.2044 199.295 89.3046C199.996 89.4048 200.626 89.5885 201.177 89.8669C201.734 90.1452 202.196 90.5405 202.575 91.0582C202.948 91.5759 203.171 92.2273 203.226 93.0122C203.321 94.2481 203.109 95.5173 202.592 96.8145C202.074 98.1171 201.355 99.3084 200.425 100.394C199.495 101.48 198.404 102.381 197.151 103.1C195.898 103.818 194.6 104.224 193.258 104.324L192.016 104.419C191.782 104.436 191.47 104.536 191.086 104.714C190.702 104.892 190.334 105.12 189.978 105.393C189.622 105.666 189.326 105.95 189.093 106.25C188.859 106.551 188.753 106.829 188.77 107.091C188.792 107.392 188.981 107.553 189.343 107.587C189.7 107.614 189.978 107.625 190.178 107.609C191.203 107.531 192.172 107.381 193.085 107.163C193.999 106.946 194.918 106.629 195.842 106.223C197.223 105.594 198.643 104.703 200.102 103.556C201.561 102.409 202.87 101.123 204.028 99.6981C205.192 98.273 206.117 96.7532 206.807 95.1388C207.498 93.5244 207.782 91.9489 207.665 90.4124C207.592 89.4382 207.342 88.6143 206.913 87.9296C206.484 87.2504 205.938 86.7048 205.27 86.304C204.607 85.9032 203.839 85.6193 202.976 85.4634C202.113 85.302 201.205 85.2574 200.258 85.3298C198.643 85.4523 196.967 85.8141 195.224 86.4154C193.486 87.0166 191.766 87.7681 190.073 88.67C188.374 89.5718 186.765 90.5516 185.239 91.6038C183.713 92.6615 182.354 93.7081 181.162 94.738C179.336 96.3079 177.454 98.2507 175.51 100.561C173.566 102.871 171.801 105.349 170.22 107.993C168.632 110.637 167.363 113.326 166.399 116.076C165.436 118.821 165.052 121.393 165.23 123.786C165.336 125.173 165.692 126.375 166.31 127.405C166.923 128.429 167.708 129.264 168.671 129.904C169.635 130.545 170.726 131.001 171.957 131.263C173.188 131.524 174.491 131.608 175.872 131.502C177.409 131.385 179.007 131.018 180.667 130.405C182.326 129.788 183.991 128.997 185.662 128.023C187.333 127.049 188.987 125.963 190.618 124.766C192.25 123.569 193.815 122.328 195.302 121.047C196.789 119.767 198.181 118.503 199.473 117.256C200.765 116.009 201.907 114.84 202.892 113.749C205.092 111.361 207.191 108.895 209.202 106.356C211.207 103.812 213.184 101.262 215.133 98.7072C217.544 95.4728 219.933 92.244 222.305 89.0151C224.678 85.7863 227.05 82.5575 229.422 79.3286C230.787 77.4192 232.179 75.5264 233.599 73.6448C235.025 71.7687 236.54 69.9372 238.149 68.1613C237.915 69.2357 237.531 70.4493 236.996 71.8077C236.467 73.166 235.866 74.5577 235.203 75.9829C234.54 77.408 233.861 78.7942 233.17 80.147C232.48 81.4997 231.878 82.6855 231.36 83.6987C231.015 84.3667 230.458 85.4244 229.701 86.8719C228.938 88.3248 228.08 89.9671 227.134 91.8098C226.181 93.6524 225.196 95.573 224.182 97.566C223.163 99.5645 222.233 101.441 221.398 103.2C220.557 104.959 219.883 106.484 219.365 107.787C218.847 109.09 218.608 109.941 218.636 110.353C218.691 111.099 219.053 111.45 219.727 111.4C220.512 111.339 221.303 111.032 222.094 110.487C222.885 109.936 223.536 109.379 224.049 108.811C224.483 108.249 224.873 107.676 225.224 107.085C225.574 106.495 225.947 105.922 226.343 105.365C228.999 101.212 231.711 97.1095 234.479 93.0568C237.247 89.0096 240.143 85.0236 243.178 81.1045C243.863 80.2249 244.598 79.2841 245.372 78.282C246.146 77.28 246.942 76.2779 247.761 75.2759C248.579 74.2738 249.426 73.3163 250.306 72.3978C251.186 71.4848 252.06 70.6776 252.918 69.9706C252.868 70.3881 252.662 71.045 252.294 71.9357C251.926 72.832 251.503 73.7728 251.024 74.7693C250.545 75.7658 250.072 76.7233 249.61 77.6418C249.142 78.5604 248.808 79.2563 248.607 79.7239C247.883 81.1713 247.076 82.8135 246.185 84.6506C245.294 86.4877 244.392 88.4306 243.478 90.4737C242.56 92.5168 241.674 94.6266 240.805 96.8033C239.937 98.9744 239.179 101.095 238.522 103.161C237.865 105.226 237.364 107.208 237.013 109.117C236.662 111.027 236.545 112.73 236.656 114.228C236.673 114.412 236.69 114.679 236.718 115.013C236.746 115.347 236.796 115.686 236.885 116.015C236.968 116.349 237.08 116.627 237.219 116.867C237.358 117.1 237.559 117.206 237.837 117.19C238.077 117.173 238.383 117.073 238.767 116.894C239.151 116.716 239.508 116.488 239.847 116.221C240.182 115.948 240.471 115.664 240.705 115.364C240.939 115.063 241.045 114.779 241.028 114.523C240.995 114.111 240.928 113.71 240.816 113.326C240.705 112.936 240.638 112.519 240.605 112.073C240.443 109.975 240.772 107.509 241.591 104.658C242.404 101.814 243.478 98.8297 244.809 95.7178C246.14 92.6058 247.588 89.4828 249.153 86.3541C250.718 83.2255 252.183 80.3251 253.547 77.6641L253.53 77.6808Z" fill="white"/>
<path d="M282.812 84.1494C282.583 83.9769 282.327 83.8878 282.049 83.8711C281.887 83.8822 281.703 83.8989 281.486 83.9156C281.269 83.9323 281.063 83.9657 280.868 84.0214C280.4 84.1717 279.849 84.4389 279.203 84.823C278.557 85.2072 277.95 85.6525 277.371 86.148C276.792 86.6434 276.307 87.1779 275.917 87.7568C275.522 88.3358 275.349 88.8814 275.388 89.4047C275.422 89.8556 275.6 90.1395 275.928 90.2675C276.257 90.3956 276.636 90.4401 277.07 90.4067C277.504 90.3733 277.978 90.223 278.496 89.9614C279.008 89.6941 279.437 89.4381 279.776 89.1875C280.077 88.976 280.461 88.6642 280.924 88.2523C281.386 87.8403 281.731 87.5119 281.948 87.2725C282.366 87.0554 282.734 86.7603 283.04 86.3985C283.346 86.0366 283.491 85.7082 283.469 85.4076C283.452 85.1849 283.38 85.0402 283.257 84.9733C283.19 84.6004 283.04 84.3331 282.812 84.1606V84.1494Z" fill="white"/>
<path d="M298.67 90.1458C299.556 89.0046 300.369 88.086 301.109 87.3901C301.26 87.2677 301.404 87.1229 301.555 86.9615C301.7 86.8001 301.867 86.672 302.062 86.5829C302.173 86.4994 302.318 86.4493 302.496 86.4382C302.674 86.4271 302.841 86.377 302.992 86.2879C303.187 86.2378 303.415 86.1153 303.677 85.926C303.938 85.7368 304.2 85.5308 304.462 85.3025C304.723 85.0743 304.93 84.8349 305.091 84.5788C305.253 84.3228 305.325 84.1001 305.308 83.9108C305.28 83.5378 305.047 83.3652 304.618 83.3986C303.276 83.4988 301.828 84.1168 300.268 85.2524C298.709 86.3881 297.183 87.7186 295.696 89.2439C294.204 90.7693 292.817 92.3225 291.531 93.9091C290.244 95.4956 289.203 96.7872 288.407 97.7892C288.535 97.3661 288.796 96.6981 289.209 95.7796C289.615 94.8666 290.038 93.9091 290.478 92.9181C290.918 91.9272 291.291 91.0142 291.609 90.1792C291.921 89.3442 292.071 88.7986 292.049 88.5369C291.993 87.8244 291.614 87.4959 290.902 87.5516C290.311 87.5961 289.738 87.752 289.181 88.0192C288.624 88.2864 288.095 88.6316 287.594 89.0435C287.087 89.4611 286.625 89.9009 286.207 90.3629C285.789 90.8305 285.394 91.2648 285.026 91.6656C284.403 92.3503 283.846 93.0629 283.345 93.7977C282.843 94.5326 282.303 95.2618 281.73 95.98C281.256 96.5422 280.794 97.1045 280.343 97.6668C280.003 98.0898 279.686 98.5185 279.385 98.9583C278.973 99.3201 278.583 99.6653 278.232 99.9715C277.157 100.996 276.033 101.831 274.858 102.488L274.679 102.499C274.384 102.293 274.223 101.97 274.189 101.519C274.139 100.845 274.367 99.9548 274.88 98.8414C275.392 97.728 275.949 96.6313 276.562 95.5513C277.174 94.4713 277.742 93.5138 278.277 92.6843C278.811 91.8549 279.068 91.365 279.056 91.2147C279.029 90.8417 278.795 90.6691 278.36 90.7025C277.848 90.7415 277.224 91.0365 276.495 91.5765C275.765 92.1221 274.991 92.8291 274.189 93.6975C273.382 94.566 272.585 95.5346 271.789 96.5868C270.998 97.6445 270.297 98.7078 269.684 99.7655C269.35 100.344 269.055 100.912 268.793 101.463C268.743 101.514 268.687 101.569 268.637 101.619C268.141 102.131 267.724 102.527 267.39 102.816C267.345 102.254 267.635 101.313 268.247 99.9826C268.86 98.6577 269.645 97.1379 270.608 95.4288C271.566 93.7198 272.641 91.9161 273.827 90.0178C275.013 88.1194 276.155 86.3213 277.252 84.6178C277.603 84.5176 278.149 84.3228 278.906 84.0388C279.658 83.7549 280.426 83.4265 281.212 83.0424C281.997 82.6638 282.665 82.2463 283.228 81.7898C283.79 81.3333 284.052 80.8824 284.013 80.4314C283.985 80.0585 283.751 79.8859 283.322 79.9193C283.127 79.936 282.944 79.9861 282.771 80.0752C282.598 80.1642 282.415 80.2143 282.22 80.231C281.824 80.2589 281.451 80.2811 281.095 80.2867C280.738 80.2978 280.382 80.2923 280.025 80.2867C280.66 79.2624 281.184 78.4218 281.59 77.7704C281.997 77.1191 282.197 76.735 282.186 76.6236C282.158 76.2507 281.924 76.0781 281.496 76.1115C281.061 76.1449 280.627 76.3008 280.193 76.5791C279.758 76.8575 279.318 77.2082 278.873 77.6368C278.427 78.0655 278.01 78.522 277.609 79.0007C277.208 79.4851 276.829 79.9638 276.467 80.4426C275.676 80.5038 274.568 80.6541 273.142 80.8935C271.711 81.1329 270.252 81.4502 268.754 81.8455C267.256 82.2407 265.858 82.7083 264.561 83.2372C263.263 83.7716 262.333 84.3562 261.782 85.0019C261.631 85.1634 261.498 85.3526 261.375 85.5698C261.253 85.7869 261.197 85.9706 261.208 86.1209C261.236 86.4939 261.47 86.6664 261.91 86.633C262.11 86.6163 262.305 86.5829 262.5 86.5328C262.695 86.4827 262.896 86.4493 263.096 86.4326C263.853 86.377 264.611 86.338 265.368 86.3157C266.125 86.299 266.9 86.2545 267.69 86.1988C268.988 86.0986 270.564 85.926 272.407 85.67C271.934 86.2712 271.332 87.0784 270.597 88.0916C269.862 89.1048 269.083 90.2293 268.264 91.4596C267.445 92.6899 266.627 93.9759 265.808 95.3175C265.062 96.5478 264.382 97.7503 263.764 98.936C263.748 98.9082 263.725 98.8915 263.709 98.8637C263.436 98.435 263.202 97.9451 263.001 97.394C263.035 97.316 263.079 97.2381 263.135 97.1602C263.191 97.0822 263.23 97.0043 263.263 96.9264C263.458 96.3864 263.686 95.7072 263.942 94.9C264.199 94.0928 264.304 93.4025 264.26 92.8458C264.226 92.4338 264.115 92.1054 263.92 91.8549C263.72 91.6043 263.386 91.4819 262.912 91.4819C262.689 91.159 262.411 90.8973 262.077 90.6969C261.743 90.4965 261.342 90.413 260.868 90.452C259.883 90.5243 258.852 90.8417 257.789 91.3928C256.72 91.9439 255.662 92.6565 254.62 93.5249C253.573 94.3934 252.576 95.3732 251.63 96.4643C250.677 97.5499 249.853 98.6688 249.146 99.8156C248.439 100.962 247.893 102.092 247.503 103.217C247.113 104.336 246.952 105.349 247.019 106.245C247.08 107.069 247.325 107.782 247.748 108.394C248.171 109.001 248.895 109.268 249.92 109.19C251.891 109.04 253.729 108.344 255.444 107.103C257.154 105.861 258.635 104.386 259.894 102.671C260.523 103.111 261.169 103.306 261.843 103.256C261.871 103.256 261.899 103.245 261.927 103.245C261.631 104.214 261.498 105.037 261.553 105.705C261.598 106.268 261.782 106.713 262.105 107.047C262.433 107.381 262.929 107.52 263.608 107.47C264.566 107.398 265.479 107.119 266.365 106.641C266.877 106.362 267.362 106.051 267.824 105.711C267.924 106.206 268.136 106.641 268.459 107.014C268.871 107.492 269.472 107.698 270.263 107.637C271.366 107.554 272.463 107.242 273.554 106.708C274.646 106.173 275.682 105.522 276.679 104.748C277.67 103.974 278.589 103.145 279.435 102.254C280.276 101.363 281.028 100.517 281.679 99.7098C281.824 99.5094 282.047 99.2311 282.359 98.8692C282.381 98.8414 282.398 98.8191 282.42 98.7913C282.715 98.4962 282.999 98.2123 283.272 97.9507C282.893 98.7356 282.504 99.682 282.091 100.807C281.679 101.931 281.507 102.922 281.574 103.785C281.618 104.347 281.78 104.792 282.064 105.132C282.348 105.466 282.804 105.611 283.434 105.566C284.458 105.488 285.505 105.076 286.58 104.336C287.655 103.596 288.724 102.666 289.788 101.552C290.851 100.439 291.909 99.2088 292.956 97.8672C294.003 96.5255 295.006 95.1895 295.952 93.8534C296.899 92.5229 297.818 91.2815 298.704 90.1458H298.67ZM257.031 97.5721C257.065 98.023 257.16 98.5241 257.321 99.0752C256.953 99.9715 256.491 100.834 255.94 101.664C255.389 102.499 254.798 103.256 254.18 103.941H254.119C253.885 103.963 253.679 103.779 253.512 103.401C253.345 103.017 253.256 102.733 253.239 102.549C253.144 101.313 253.428 100.077 254.086 98.8414C254.743 97.6055 255.472 96.5255 256.274 95.5958C256.491 95.2785 256.759 94.9445 257.093 94.6049C257.427 94.2598 257.789 94.0705 258.179 94.0427C257.304 95.0893 256.92 96.2639 257.02 97.5721H257.031Z" fill="white"/>
<path d="M363.987 64.889C363.948 64.3657 363.776 63.9537 363.475 63.6587C363.174 63.3636 362.729 63.2356 362.138 63.2801C360.997 63.3692 359.794 63.8814 358.541 64.8222C357.282 65.763 356.035 66.9432 354.793 68.3516C353.551 69.7601 352.354 71.3299 351.196 73.0557C350.037 74.7815 348.968 76.4738 347.982 78.1272C346.997 79.7806 346.122 81.3171 345.359 82.7311C344.596 84.1451 344.023 85.2418 343.65 86.0212C342.781 86.088 341.823 86.3941 340.776 86.9453C339.729 87.4964 338.671 88.1756 337.602 88.9939C336.533 89.8067 335.502 90.7364 334.511 91.7718C333.52 92.8073 332.646 93.8427 331.888 94.8782C331.638 95.2233 331.415 95.5574 331.198 95.8969C331.142 95.947 331.086 95.9972 331.025 96.0473C330.318 96.6819 329.544 97.272 328.692 97.8064C327.84 98.3408 326.882 98.647 325.818 98.7305C325.15 98.7806 324.515 98.5747 323.925 98.1126C323.334 97.6505 323.017 97.0994 322.967 96.4648C322.945 96.1642 322.978 95.8413 323.073 95.4961C323.234 95.524 323.412 95.524 323.607 95.5128C324.554 95.4405 325.562 95.1788 326.642 94.7168C327.717 94.2603 328.742 93.6813 329.722 92.9854C330.702 92.2896 331.593 91.5269 332.406 90.6918C333.214 89.8568 333.826 89.0496 334.244 88.2646C334.389 88.0642 334.511 87.7859 334.623 87.4185C334.734 87.051 334.784 86.756 334.762 86.5333C334.695 85.637 334.339 85.0525 333.704 84.7797C333.069 84.5069 332.356 84.4012 331.571 84.4624C330.073 84.5737 328.441 85.1638 326.676 86.216C324.91 87.2737 323.273 88.5541 321.764 90.0628C320.255 91.5714 319.007 93.1914 318.027 94.9227C317.459 95.9248 317.081 96.8823 316.88 97.7953C316.813 97.8621 316.746 97.9233 316.685 97.9901C316.189 98.4967 315.772 98.8975 315.438 99.187V99.1314C315.399 98.647 315.594 97.8843 316.034 96.8545C316.468 95.8246 317.053 94.65 317.782 93.3361C318.512 92.0168 319.341 90.5916 320.277 89.0552C321.207 87.5187 322.154 85.9933 323.106 84.4902C324.91 84.2787 326.837 84.0115 328.892 83.683C330.947 83.3602 332.902 82.9649 334.767 82.5028C336.633 82.0408 338.276 81.523 339.696 80.9441C341.116 80.3651 342.096 79.7194 342.636 78.9956C342.748 78.9121 342.859 78.773 342.959 78.5781C343.065 78.3833 343.11 78.2274 343.098 78.1161C343.071 77.7431 342.837 77.5705 342.408 77.6039C342.213 77.6206 342.012 77.6596 341.823 77.732C341.628 77.8043 341.433 77.8489 341.238 77.86C338.755 78.0493 336.26 78.2497 333.759 78.4557C331.259 78.6672 328.753 78.9567 326.241 79.3352C327.377 77.5928 328.319 76.1509 329.065 74.9986C329.811 73.8518 330.179 73.1837 330.162 72.9945C330.134 72.6215 329.9 72.4489 329.471 72.4823C328.92 72.5268 328.291 72.8442 327.583 73.4454C326.876 74.0466 326.158 74.7481 325.423 75.5553C324.693 76.3625 324.003 77.1975 323.351 78.0548C322.7 78.9121 322.198 79.6025 321.842 80.1146C320.511 80.3651 319.202 80.6435 317.921 80.9497C316.635 81.2558 315.354 81.6066 314.079 82.0018C313.305 82.2523 312.514 82.5362 311.707 82.8591C310.899 83.182 310.242 83.6886 309.741 84.3622C309.668 84.4457 309.579 84.5793 309.473 84.7797C309.368 84.9746 309.323 85.1471 309.334 85.2975C309.362 85.6315 309.59 85.7873 310.025 85.7539C310.303 85.7317 310.554 85.6927 310.788 85.637C311.022 85.5814 311.294 85.5424 311.612 85.5201C312.52 85.4533 313.416 85.3754 314.302 85.2863C315.187 85.2028 316.061 85.1249 316.93 85.0581L318.172 84.9634C317.777 85.4812 317.292 86.1715 316.724 87.0232C316.15 87.875 315.543 88.8325 314.892 89.9013C314.24 90.9702 313.589 92.0724 312.943 93.2137C312.297 94.3549 311.718 95.4739 311.205 96.565C310.944 97.1217 310.715 97.6561 310.509 98.1794C310.37 98.3186 310.231 98.4522 310.108 98.5691C309.846 98.7806 309.596 98.9755 309.351 99.1648C309.106 99.354 308.855 99.5489 308.594 99.7604L308.582 99.6491C308.332 99.5155 308.198 99.2817 308.17 98.9476C308.137 98.5357 308.254 97.9512 308.516 97.1996C308.777 96.4481 309.111 95.6798 309.529 94.8893C310.108 94.2046 310.693 93.5032 311.272 92.7794C311.851 92.0557 312.358 91.3877 312.787 90.7753C313.216 90.163 313.561 89.5951 313.817 89.0886C314.073 88.582 314.196 88.1923 314.174 87.9306C314.129 87.3294 313.767 87.0566 313.099 87.1067C312.508 87.1513 311.924 87.3071 311.35 87.5799C311.016 87.3795 310.66 87.2181 310.27 87.0956C309.886 86.9731 309.535 86.9286 309.217 86.9508C308.193 87.0288 307.095 87.3461 305.932 87.9084C304.762 88.4706 303.609 89.1665 302.462 90.0071C301.315 90.8477 300.218 91.8052 299.171 92.8852C298.124 93.9652 297.216 95.0675 296.448 96.1976C295.679 97.3277 295.083 98.441 294.649 99.5266C294.22 100.612 294.036 101.609 294.103 102.505C294.159 103.251 294.415 103.858 294.866 104.309C295.317 104.765 295.958 104.96 296.782 104.899C297.729 104.826 298.62 104.581 299.461 104.158C300.301 103.735 301.098 103.273 301.855 102.761C302 102.6 302.156 102.466 302.328 102.36C302.501 102.254 302.657 102.138 302.807 102.015C302.891 102.611 303.153 103.067 303.598 103.396C304.038 103.719 304.595 103.858 305.263 103.808C306.093 103.746 306.934 103.485 307.792 103.023C308.404 102.694 309.006 102.316 309.59 101.887C309.59 101.943 309.59 102.009 309.59 102.065C309.635 102.627 309.819 103.073 310.142 103.407C310.47 103.741 310.966 103.88 311.645 103.83C312.598 103.757 313.516 103.479 314.402 103C315.287 102.516 316.1 101.948 316.847 101.291C316.908 101.236 316.969 101.174 317.03 101.119C317.309 101.82 317.771 102.36 318.411 102.728C319.425 103.307 320.628 103.546 322.003 103.44C323.106 103.357 324.242 103.05 325.412 102.533C326.581 102.009 327.712 101.38 328.809 100.64C329.048 100.479 329.271 100.306 329.499 100.133C329.499 100.2 329.494 100.267 329.499 100.328C329.549 100.963 329.75 101.57 330.112 102.143C330.474 102.716 331.047 102.978 331.838 102.917C332.98 102.828 334.132 102.449 335.291 101.781C336.449 101.108 337.457 100.44 338.32 99.7715L339.384 98.9031C339.445 99.688 339.64 100.351 339.98 100.891C340.32 101.431 340.96 101.664 341.907 101.592C342.814 101.525 343.722 101.236 344.635 100.735C345.549 100.234 346.445 99.6379 347.325 98.9476C348.205 98.2573 349.024 97.5281 349.776 96.7543C350.527 95.9805 351.201 95.2901 351.791 94.6833C351.975 94.4829 352.259 94.1656 352.643 93.7425C353.028 93.3194 353.206 92.9576 353.184 92.657C353.156 92.284 352.922 92.1114 352.493 92.1448C351.903 92.1894 351.262 92.5011 350.572 93.0801C349.881 93.659 349.207 94.2825 348.545 94.9561C347.882 95.6297 347.247 96.2477 346.635 96.8211C346.022 97.3945 345.482 97.7006 345.009 97.734C344.769 97.7507 344.596 97.645 344.479 97.4056C344.363 97.1718 344.296 96.9602 344.285 96.771C344.229 96.0584 344.374 95.1064 344.719 93.9151C345.599 92.9854 346.696 91.7496 348.005 90.2186C349.319 88.6877 350.694 86.9954 352.137 85.136C353.579 83.2766 355.021 81.3505 356.458 79.3575C357.895 77.3645 359.187 75.4495 360.334 73.6124C361.481 71.7753 362.395 70.0885 363.074 68.5465C363.748 67.01 364.054 65.7908 363.987 64.8945V64.889ZM326.325 90.1073C326.865 89.6508 327.411 89.4059 327.962 89.3613C328.319 89.3335 328.597 89.4059 328.809 89.5784L328.948 89.8512C328.948 89.9236 328.931 90.0127 328.881 90.1073C328.831 90.2075 328.786 90.2966 328.753 90.369H328.814C328.291 90.8199 327.806 91.1762 327.35 91.4378C326.893 91.6995 326.291 91.8553 325.54 91.911C325.222 91.9333 324.983 91.8999 324.816 91.7941C325.278 91.1205 325.785 90.5527 326.325 90.0962V90.1073ZM306.438 92.6069C305.976 93.3027 305.536 94.0431 305.119 94.8225C304.395 95.7077 303.665 96.5427 302.93 97.3332C302.195 98.1237 301.426 98.9254 300.613 99.7382C300.485 99.599 300.363 99.4542 300.251 99.3151C300.14 99.1759 300.079 99.0089 300.068 98.8196C300.017 98.185 300.207 97.4 300.63 96.4648C301.053 95.5295 301.588 94.6221 302.234 93.7481C302.88 92.8685 303.598 92.1114 304.378 91.4656C305.163 90.8254 305.909 90.4747 306.617 90.4191C306.85 90.4024 307.062 90.4358 307.246 90.5137C307.43 90.5916 307.586 90.6696 307.708 90.7308C307.313 91.2875 306.884 91.911 306.422 92.6069H306.438ZM340.375 93.8372C339.974 94.2825 339.579 94.7167 339.195 95.1398C338.81 95.5629 338.393 95.9638 337.947 96.3367C337.541 96.7042 337.129 97.0604 336.716 97.3889C336.304 97.7229 335.898 98.0736 335.486 98.441C335.285 98.4578 335.118 98.3297 334.979 98.0569C334.84 97.7841 334.762 97.5559 334.745 97.3666C334.706 96.8433 334.918 96.1419 335.385 95.2567C335.853 94.3716 336.432 93.492 337.117 92.6124C337.802 91.7329 338.537 90.9702 339.323 90.33C340.108 89.6898 340.776 89.3446 341.327 89.3001C341.6 89.2778 341.862 89.3168 342.107 89.4114C341.394 91.0092 340.815 92.4844 340.364 93.8372H340.375ZM353.579 76.6297C352.766 77.899 351.925 79.1627 351.073 80.4319C352.02 78.8175 352.922 77.3478 353.774 76.0173C354.626 74.6924 355.333 73.6124 355.907 72.7774C355.172 74.0745 354.398 75.3549 353.585 76.6241L353.579 76.6297Z" fill="white"/>
</g>
<defs>
<clipPath id="clip0_64_8601">
<rect width="364" height="141" fill="white"/>
</clipPath>
</defs>
</svg>
